<svg width="302" height="454" viewBox="0 0 302 454" fill="none" xmlns="http://www.w3.org/2000/svg">
<path d="M0 19.68C0 12.5059 0 8.91892 1.48432 6.21896C2.58134 4.22349 4.22349 2.58134 6.21896 1.48432C8.91892 0 12.5059 0 19.68 0H282.32C289.494 0 293.081 0 295.781 1.48432C297.777 2.58134 299.419 4.22349 300.516 6.21896C302 8.91892 302 12.5059 302 19.68V434.32C302 441.494 302 445.081 300.516 447.781C299.419 449.777 297.777 451.419 295.781 452.516C293.081 454 289.494 454 282.32 454H19.68C12.5059 454 8.91892 454 6.21896 452.516C4.22349 451.419 2.58134 449.777 1.48432 447.781C0 445.081 0 441.494 0 434.32V19.68Z" fill="white" fill-opacity="0.24"/>
<path d="M254.461 427H247.008V425.961L250.945 421.586C251.529 420.924 251.93 420.388 252.148 419.977C252.372 419.56 252.484 419.13 252.484 418.688C252.484 418.094 252.305 417.607 251.945 417.227C251.586 416.846 251.107 416.656 250.508 416.656C249.789 416.656 249.229 416.862 248.828 417.273C248.432 417.68 248.234 418.247 248.234 418.977H246.789C246.789 417.93 247.125 417.083 247.797 416.438C248.474 415.792 249.378 415.469 250.508 415.469C251.565 415.469 252.401 415.747 253.016 416.305C253.63 416.857 253.938 417.594 253.938 418.516C253.938 419.635 253.224 420.969 251.797 422.516L248.75 425.82H254.461V427ZM263.125 422.148C263.125 423.841 262.836 425.099 262.258 425.922C261.68 426.745 260.776 427.156 259.547 427.156C258.333 427.156 257.435 426.755 256.852 425.953C256.268 425.146 255.966 423.943 255.945 422.344V420.414C255.945 418.742 256.234 417.5 256.812 416.688C257.391 415.875 258.297 415.469 259.531 415.469C260.755 415.469 261.656 415.862 262.234 416.648C262.812 417.43 263.109 418.638 263.125 420.273V422.148ZM261.68 420.172C261.68 418.948 261.508 418.057 261.164 417.5C260.82 416.938 260.276 416.656 259.531 416.656C258.792 416.656 258.253 416.935 257.914 417.492C257.576 418.049 257.401 418.906 257.391 420.062V422.375C257.391 423.604 257.568 424.513 257.922 425.102C258.281 425.685 258.823 425.977 259.547 425.977C260.26 425.977 260.789 425.701 261.133 425.148C261.482 424.596 261.664 423.727 261.68 422.539V420.172ZM269.727 427H268.273V417.367L265.359 418.438V417.125L269.5 415.57H269.727V427ZM281.305 416.438L276.594 427H275.078L279.773 416.812H273.617V415.625H281.305V416.438Z" fill="white" fill-opacity="0.24"/>
<path d="M28.2578 416.859H22.7734V420.266H25.6016C26.7891 420.281 27.7161 420.586 28.3828 421.18C29.0495 421.773 29.3828 422.581 29.3828 423.602C29.3828 424.628 29.0469 425.445 28.375 426.055C27.7031 426.664 26.7865 426.979 25.625 427H21.2656V415.625H28.2578V416.859ZM22.7734 421.5V425.773H25.5156C26.2604 425.773 26.8385 425.576 27.25 425.18C27.6667 424.784 27.875 424.253 27.875 423.586C27.875 422.945 27.6745 422.44 27.2734 422.07C26.8776 421.701 26.3125 421.51 25.5781 421.5H22.7734ZM30.8047 422.695C30.8047 421.867 30.9661 421.122 31.2891 420.461C31.6172 419.799 32.0703 419.289 32.6484 418.93C33.2318 418.57 33.8958 418.391 34.6406 418.391C35.7917 418.391 36.7214 418.789 37.4297 419.586C38.1432 420.383 38.5 421.443 38.5 422.766V422.867C38.5 423.69 38.3411 424.43 38.0234 425.086C37.7109 425.737 37.2604 426.245 36.6719 426.609C36.0885 426.974 35.4167 427.156 34.6562 427.156C33.5104 427.156 32.5807 426.758 31.8672 425.961C31.1589 425.164 30.8047 424.109 30.8047 422.797V422.695ZM32.2578 422.867C32.2578 423.805 32.474 424.557 32.9062 425.125C33.3438 425.693 33.9271 425.977 34.6562 425.977C35.3906 425.977 35.974 425.69 36.4062 425.117C36.8385 424.539 37.0547 423.732 37.0547 422.695C37.0547 421.768 36.8333 421.018 36.3906 420.445C35.9531 419.867 35.3698 419.578 34.6406 419.578C33.9271 419.578 33.3516 419.862 32.9141 420.43C32.4766 420.997 32.2578 421.81 32.2578 422.867ZM43.8203 427.156C42.6745 427.156 41.7422 426.781 41.0234 426.031C40.3047 425.276 39.9453 424.268 39.9453 423.008V422.742C39.9453 421.904 40.1042 421.156 40.4219 420.5C40.7448 419.839 41.1927 419.323 41.7656 418.953C42.3438 418.578 42.9688 418.391 43.6406 418.391C44.7396 418.391 45.5938 418.753 46.2031 419.477C46.8125 420.201 47.1172 421.237 47.1172 422.586V423.188H41.3906C41.4115 424.021 41.6536 424.695 42.1172 425.211C42.5859 425.721 43.1797 425.977 43.8984 425.977C44.4089 425.977 44.8411 425.872 45.1953 425.664C45.5495 425.456 45.8594 425.18 46.125 424.836L47.0078 425.523C46.2995 426.612 45.237 427.156 43.8203 427.156ZM43.6406 419.578C43.0573 419.578 42.5677 419.792 42.1719 420.219C41.776 420.641 41.5312 421.234 41.4375 422H45.6719V421.891C45.6302 421.156 45.4323 420.589 45.0781 420.188C44.724 419.781 44.2448 419.578 43.6406 419.578ZM48.9297 427V418.547H52.2266C53.3516 418.547 54.2135 418.745 54.8125 419.141C55.4167 419.531 55.7188 420.107 55.7188 420.867C55.7188 421.258 55.6016 421.612 55.3672 421.93C55.1328 422.242 54.7865 422.482 54.3281 422.648C54.8385 422.768 55.2474 423.003 55.5547 423.352C55.8672 423.701 56.0234 424.117 56.0234 424.602C56.0234 425.378 55.737 425.971 55.1641 426.383C54.5964 426.794 53.7917 427 52.75 427H48.9297ZM50.375 423.289V425.836H52.7656C53.3698 425.836 53.8203 425.724 54.1172 425.5C54.4193 425.276 54.5703 424.961 54.5703 424.555C54.5703 423.711 53.9505 423.289 52.7109 423.289H50.375ZM50.375 422.133H52.2422C53.5964 422.133 54.2734 421.737 54.2734 420.945C54.2734 420.154 53.6328 419.745 52.3516 419.719H50.375V422.133ZM63.4062 418.547H64.8516V427H63.4062V420.836L59.5078 427H58.0625V418.547H59.5078V424.719L63.4062 418.547ZM69.8047 423.398H68.75V427H67.2969V418.547H68.75V422.125H69.6953L72.5391 418.547H74.2891L70.9453 422.609L74.5703 427H72.7344L69.8047 423.398ZM75.7656 429.266L74.9453 428.703C75.4349 428.021 75.6901 427.318 75.7109 426.594V425.289H77.125V426.422C77.125 426.948 76.9948 427.474 76.7344 428C76.4792 428.526 76.1562 428.948 75.7656 429.266ZM89.2031 419.719H86.3672V427H84.9219V419.719H82.1406V418.547H89.2031V419.719ZM97.75 422.867C97.75 424.154 97.4557 425.19 96.8672 425.977C96.2786 426.763 95.4818 427.156 94.4766 427.156C93.4505 427.156 92.6432 426.831 92.0547 426.18V430.25H90.6094V418.547H91.9297L92 419.484C92.5885 418.755 93.4062 418.391 94.4531 418.391C95.4688 418.391 96.2708 418.773 96.8594 419.539C97.4531 420.305 97.75 421.37 97.75 422.734V422.867ZM96.3047 422.703C96.3047 421.75 96.1016 420.997 95.6953 420.445C95.2891 419.893 94.7318 419.617 94.0234 419.617C93.1484 419.617 92.4922 420.005 92.0547 420.781V424.82C92.487 425.591 93.1484 425.977 94.0391 425.977C94.7318 425.977 95.2812 425.703 95.6875 425.156C96.099 424.604 96.3047 423.786 96.3047 422.703ZM105.062 418.547H106.508V427H105.062V420.836L101.164 427H99.7188V418.547H101.164V424.719L105.062 418.547ZM115.758 418.547V427H114.305V419.742H111.43L111.258 422.906C111.164 424.359 110.919 425.398 110.523 426.023C110.133 426.648 109.51 426.974 108.656 427H108.078V425.727L108.492 425.695C108.961 425.643 109.297 425.372 109.5 424.883C109.703 424.393 109.833 423.487 109.891 422.164L110.047 418.547H115.758ZM125.008 418.547V427H123.555V419.742H120.68L120.508 422.906C120.414 424.359 120.169 425.398 119.773 426.023C119.383 426.648 118.76 426.974 117.906 427H117.328V425.727L117.742 425.695C118.211 425.643 118.547 425.372 118.75 424.883C118.953 424.393 119.083 423.487 119.141 422.164L119.297 418.547H125.008ZM130.836 427.156C129.69 427.156 128.758 426.781 128.039 426.031C127.32 425.276 126.961 424.268 126.961 423.008V422.742C126.961 421.904 127.12 421.156 127.438 420.5C127.76 419.839 128.208 419.323 128.781 418.953C129.359 418.578 129.984 418.391 130.656 418.391C131.755 418.391 132.609 418.753 133.219 419.477C133.828 420.201 134.133 421.237 134.133 422.586V423.188H128.406C128.427 424.021 128.669 424.695 129.133 425.211C129.602 425.721 130.195 425.977 130.914 425.977C131.424 425.977 131.857 425.872 132.211 425.664C132.565 425.456 132.875 425.18 133.141 424.836L134.023 425.523C133.315 426.612 132.253 427.156 130.836 427.156ZM130.656 419.578C130.073 419.578 129.583 419.792 129.188 420.219C128.792 420.641 128.547 421.234 128.453 422H132.688V421.891C132.646 421.156 132.448 420.589 132.094 420.188C131.74 419.781 131.26 419.578 130.656 419.578ZM142.953 422.867C142.953 424.154 142.659 425.19 142.07 425.977C141.482 426.763 140.685 427.156 139.68 427.156C138.654 427.156 137.846 426.831 137.258 426.18V430.25H135.812V418.547H137.133L137.203 419.484C137.792 418.755 138.609 418.391 139.656 418.391C140.672 418.391 141.474 418.773 142.062 419.539C142.656 420.305 142.953 421.37 142.953 422.734V422.867ZM141.508 422.703C141.508 421.75 141.305 420.997 140.898 420.445C140.492 419.893 139.935 419.617 139.227 419.617C138.352 419.617 137.695 420.005 137.258 420.781V424.82C137.69 425.591 138.352 425.977 139.242 425.977C139.935 425.977 140.484 425.703 140.891 425.156C141.302 424.604 141.508 423.786 141.508 422.703Z" fill="white" fill-opacity="0.24"/>
<path d="M25.0273 370.938V385.176H29.7617V370.938H33.2891V385.176H37.9766V370.938H41.4922V388H21.5V370.938H25.0273ZM55.3438 388H51.9453V378.062H47.7031V388H44.3164V375.32H55.3438V388ZM65.5742 375.32H68.9609V388H65.5742V380.172L61.332 388H57.9336V375.32H61.332V383.137L65.5742 375.32ZM71.0234 381.543C71.0234 380.285 71.2656 379.164 71.75 378.18C72.2344 377.195 72.9297 376.434 73.8359 375.895C74.75 375.355 75.8086 375.086 77.0117 375.086C78.7227 375.086 80.1172 375.609 81.1953 376.656C82.2812 377.703 82.8867 379.125 83.0117 380.922L83.0352 381.789C83.0352 383.734 82.4922 385.297 81.4062 386.477C80.3203 387.648 78.8633 388.234 77.0352 388.234C75.207 388.234 73.7461 387.648 72.6523 386.477C71.5664 385.305 71.0234 383.711 71.0234 381.695V381.543ZM74.4102 381.789C74.4102 382.992 74.6367 383.914 75.0898 384.555C75.543 385.188 76.1914 385.504 77.0352 385.504C77.8555 385.504 78.4961 385.191 78.957 384.566C79.418 383.934 79.6484 382.926 79.6484 381.543C79.6484 380.363 79.418 379.449 78.957 378.801C78.4961 378.152 77.8477 377.828 77.0117 377.828C76.1836 377.828 75.543 378.152 75.0898 378.801C74.6367 379.441 74.4102 380.438 74.4102 381.789ZM96.1133 388H92.7148V383.125H88.5078V388H85.1211V375.32H88.5078V380.406H92.7148V375.32H96.1133V388ZM104.012 385.504C104.637 385.504 105.145 385.332 105.535 384.988C105.926 384.645 106.129 384.188 106.145 383.617H109.32C109.312 384.477 109.078 385.266 108.617 385.984C108.156 386.695 107.523 387.25 106.719 387.648C105.922 388.039 105.039 388.234 104.07 388.234C102.258 388.234 100.828 387.66 99.7812 386.512C98.7344 385.355 98.2109 383.762 98.2109 381.73V381.508C98.2109 379.555 98.7305 377.996 99.7695 376.832C100.809 375.668 102.234 375.086 104.047 375.086C105.633 375.086 106.902 375.539 107.855 376.445C108.816 377.344 109.305 378.543 109.32 380.043H106.145C106.129 379.387 105.926 378.855 105.535 378.449C105.145 378.035 104.629 377.828 103.988 377.828C103.199 377.828 102.602 378.117 102.195 378.695C101.797 379.266 101.598 380.195 101.598 381.484V381.836C101.598 383.141 101.797 384.078 102.195 384.648C102.594 385.219 103.199 385.504 104.012 385.504ZM116.223 383.324H114.863V388H111.477V375.32H114.863V380.09H116.07L118.836 375.32H123.113L118.965 381.355L123.5 388H118.988L116.223 383.324ZM132.418 375.32H135.805V388H132.418V380.172L128.176 388H124.777V375.32H128.176V383.137L132.418 375.32ZM146.035 375.32H149.422V388H146.035V380.172L141.793 388H138.395V375.32H141.793V383.137L146.035 375.32ZM148.027 370.176C148.027 371.215 147.652 372.055 146.902 372.695C146.16 373.336 145.184 373.656 143.973 373.656C142.762 373.656 141.781 373.34 141.031 372.707C140.289 372.074 139.918 371.23 139.918 370.176H142.32C142.32 370.668 142.465 371.051 142.754 371.324C143.051 371.59 143.457 371.723 143.973 371.723C144.48 371.723 144.879 371.59 145.168 371.324C145.457 371.051 145.602 370.668 145.602 370.176H148.027ZM165.711 384.004L169.027 375.32H173.27V388H169.883V380.219L166.848 388H164.574L161.598 380.348V388H158.211V375.32H162.418L165.711 384.004ZM175.695 381.543C175.695 380.285 175.938 379.164 176.422 378.18C176.906 377.195 177.602 376.434 178.508 375.895C179.422 375.355 180.48 375.086 181.684 375.086C183.395 375.086 184.789 375.609 185.867 376.656C186.953 377.703 187.559 379.125 187.684 380.922L187.707 381.789C187.707 383.734 187.164 385.297 186.078 386.477C184.992 387.648 183.535 388.234 181.707 388.234C179.879 388.234 178.418 387.648 177.324 386.477C176.238 385.305 175.695 383.711 175.695 381.695V381.543ZM179.082 381.789C179.082 382.992 179.309 383.914 179.762 384.555C180.215 385.188 180.863 385.504 181.707 385.504C182.527 385.504 183.168 385.191 183.629 384.566C184.09 383.934 184.32 382.926 184.32 381.543C184.32 380.363 184.09 379.449 183.629 378.801C183.168 378.152 182.52 377.828 181.684 377.828C180.855 377.828 180.215 378.152 179.762 378.801C179.309 379.441 179.082 380.438 179.082 381.789ZM195.066 385.504C195.691 385.504 196.199 385.332 196.59 384.988C196.98 384.645 197.184 384.188 197.199 383.617H200.375C200.367 384.477 200.133 385.266 199.672 385.984C199.211 386.695 198.578 387.25 197.773 387.648C196.977 388.039 196.094 388.234 195.125 388.234C193.312 388.234 191.883 387.66 190.836 386.512C189.789 385.355 189.266 383.762 189.266 381.73V381.508C189.266 379.555 189.785 377.996 190.824 376.832C191.863 375.668 193.289 375.086 195.102 375.086C196.688 375.086 197.957 375.539 198.91 376.445C199.871 377.344 200.359 378.543 200.375 380.043H197.199C197.184 379.387 196.98 378.855 196.59 378.449C196.199 378.035 195.684 377.828 195.043 377.828C194.254 377.828 193.656 378.117 193.25 378.695C192.852 379.266 192.652 380.195 192.652 381.484V381.836C192.652 383.141 192.852 384.078 193.25 384.648C193.648 385.219 194.254 385.504 195.066 385.504ZM212.832 378.039H208.766V388H205.367V378.039H201.371V375.32H212.832V378.039Z" fill="white" fill-opacity="0.24"/>
</svg>
