<svg width="628" height="74" viewBox="0 0 628 74" fill="none" xmlns="http://www.w3.org/2000/svg">
<rect y="72" width="628" height="2" rx="1" fill="white"/>
<path d="M133.754 44H132.312V28.168H122.656V44H121.215V26.9375H133.754V44ZM137.047 37.4727C137.047 36.2539 137.281 35.1562 137.75 34.1797C138.227 33.2031 138.895 32.4453 139.754 31.9062C140.621 31.3594 141.602 31.0859 142.695 31.0859C144.383 31.0859 145.75 31.6797 146.797 32.8672C147.844 34.0469 148.367 35.6133 148.367 37.5664V37.8594C148.367 39.0859 148.129 40.1914 147.652 41.1758C147.184 42.1523 146.52 42.9062 145.66 43.4375C144.801 43.9688 143.82 44.2344 142.719 44.2344C141.039 44.2344 139.672 43.6445 138.617 42.4648C137.57 41.2773 137.047 39.707 137.047 37.7539V37.4727ZM138.453 37.8594C138.453 39.375 138.844 40.6211 139.625 41.5977C140.414 42.5664 141.445 43.0508 142.719 43.0508C143.984 43.0508 145.008 42.5664 145.789 41.5977C146.578 40.6211 146.973 39.3359 146.973 37.7422V37.4727C146.973 36.5039 146.793 35.6172 146.434 34.8125C146.074 34.0078 145.57 33.3867 144.922 32.9492C144.273 32.5039 143.531 32.2812 142.695 32.2812C141.445 32.2812 140.426 32.7734 139.637 33.7578C138.848 34.7344 138.453 36.0156 138.453 37.6016V37.8594ZM159.605 31.3203H161.012V44H159.605V33.582L152.762 44H151.367V31.3203H152.762V41.75L159.605 31.3203ZM169.461 43.0508C170.438 43.0508 171.254 42.7773 171.91 42.2305C172.574 41.6758 172.934 40.9609 172.988 40.0859H174.336C174.297 40.8594 174.055 41.5664 173.609 42.207C173.164 42.8398 172.57 43.3359 171.828 43.6953C171.094 44.0547 170.305 44.2344 169.461 44.2344C167.797 44.2344 166.477 43.6562 165.5 42.5C164.531 41.3438 164.047 39.7891 164.047 37.8359V37.4141C164.047 36.1641 164.266 35.0586 164.703 34.0977C165.141 33.1367 165.766 32.3945 166.578 31.8711C167.398 31.3477 168.355 31.0859 169.449 31.0859C170.84 31.0859 171.984 31.5 172.883 32.3281C173.789 33.1562 174.273 34.2461 174.336 35.5977H172.988C172.926 34.6055 172.566 33.8047 171.91 33.1953C171.262 32.5859 170.441 32.2812 169.449 32.2812C168.184 32.2812 167.199 32.7383 166.496 33.6523C165.801 34.5664 165.453 35.8477 165.453 37.4961V37.9062C165.453 39.5234 165.801 40.7852 166.496 41.6914C167.199 42.5977 168.188 43.0508 169.461 43.0508ZM180.594 38.1875H178.648V44H177.23V31.3203H178.648V36.9453H180.57L185.223 31.3203H186.992L181.789 37.4727L187.566 44H185.715L180.594 38.1875ZM194.902 37.7656C194.902 35.7031 195.305 34.0742 196.109 32.8789C196.922 31.6836 198.043 31.0859 199.473 31.0859C200.293 31.0859 200.988 31.2695 201.559 31.6367V26H202.953V31.6836C203.531 31.2852 204.25 31.0859 205.109 31.0859C206.461 31.0859 207.543 31.6289 208.355 32.7148C209.168 33.8008 209.609 35.3125 209.68 37.25L209.691 38.0117C209.691 39.9414 209.285 41.4648 208.473 42.582C207.66 43.6914 206.547 44.2461 205.133 44.2461C204.289 44.2461 203.562 44.0625 202.953 43.6953V48.875H201.559V43.707C200.957 44.0664 200.254 44.2461 199.449 44.2461C198.113 44.2461 197.043 43.7422 196.238 42.7344C195.434 41.7188 194.992 40.3164 194.914 38.5273L194.902 37.7656ZM208.297 37.7656C208.297 36.0625 207.988 34.7227 207.371 33.7461C206.762 32.7695 205.906 32.2812 204.805 32.2812C204.008 32.2812 203.391 32.4531 202.953 32.7969V42.6055C203.445 42.9102 204.07 43.0625 204.828 43.0625C205.922 43.0625 206.773 42.625 207.383 41.75C207.992 40.8672 208.297 39.5391 208.297 37.7656ZM196.309 38.0117C196.309 39.6055 196.602 40.8477 197.188 41.7383C197.773 42.6211 198.617 43.0625 199.719 43.0625C200.453 43.0625 201.066 42.9023 201.559 42.582V32.7617C201.105 32.4414 200.5 32.2812 199.742 32.2812C198.648 32.2812 197.801 32.7695 197.199 33.7461C196.605 34.7148 196.309 36.1367 196.309 38.0117ZM221.152 31.3203H222.559V44H221.152V33.582L214.309 44H212.914V31.3203H214.309V41.75L221.152 31.3203ZM236.07 31.3203V44H234.664V32.5273H229.473L229.25 37.2734C229.156 39.0312 228.98 40.375 228.723 41.3047C228.465 42.2266 228.082 42.9062 227.574 43.3438C227.066 43.7812 226.391 44 225.547 44H225.008V42.7578L225.441 42.7344C226.246 42.7188 226.824 42.3281 227.176 41.5625C227.527 40.7969 227.758 39.4297 227.867 37.4609L228.125 31.3203H236.07ZM241.391 35.9258H245.047C245.984 35.9258 246.805 36.0977 247.508 36.4414C248.219 36.7773 248.754 37.2461 249.113 37.8477C249.48 38.4492 249.664 39.1484 249.664 39.9453C249.664 41.1719 249.242 42.1562 248.398 42.8984C247.562 43.6328 246.43 44 245 44H239.996V31.3203H241.391V35.9258ZM241.391 37.1211V42.8164H245.023C246.031 42.8164 246.82 42.5625 247.391 42.0547C247.969 41.5469 248.258 40.8516 248.258 39.9688C248.258 39.125 247.977 38.4453 247.414 37.9297C246.859 37.4062 246.098 37.1367 245.129 37.1211H241.391ZM259.707 42.1016L264.746 31.3203H266.48V44H265.074V33.5938L260.199 44H259.203L254.234 33.3594V44H252.84V31.3203H254.68L259.707 42.1016ZM269.469 37.4727C269.469 36.2539 269.703 35.1562 270.172 34.1797C270.648 33.2031 271.316 32.4453 272.176 31.9062C273.043 31.3594 274.023 31.0859 275.117 31.0859C276.805 31.0859 278.172 31.6797 279.219 32.8672C280.266 34.0469 280.789 35.6133 280.789 37.5664V37.8594C280.789 39.0859 280.551 40.1914 280.074 41.1758C279.605 42.1523 278.941 42.9062 278.082 43.4375C277.223 43.9688 276.242 44.2344 275.141 44.2344C273.461 44.2344 272.094 43.6445 271.039 42.4648C269.992 41.2773 269.469 39.707 269.469 37.7539V37.4727ZM270.875 37.8594C270.875 39.375 271.266 40.6211 272.047 41.5977C272.836 42.5664 273.867 43.0508 275.141 43.0508C276.406 43.0508 277.43 42.5664 278.211 41.5977C279 40.6211 279.395 39.3359 279.395 37.7422V37.4727C279.395 36.5039 279.215 35.6172 278.855 34.8125C278.496 34.0078 277.992 33.3867 277.344 32.9492C276.695 32.5039 275.953 32.2812 275.117 32.2812C273.867 32.2812 272.848 32.7734 272.059 33.7578C271.27 34.7344 270.875 36.0156 270.875 37.6016V37.8594ZM283.848 44V31.3203H288.5C290.109 31.3203 291.344 31.6094 292.203 32.1875C293.062 32.7578 293.492 33.5977 293.492 34.707C293.492 35.3398 293.301 35.9062 292.918 36.4062C292.535 36.8984 291.977 37.2578 291.242 37.4844C292.07 37.6406 292.734 37.9961 293.234 38.5508C293.742 39.1055 293.996 39.75 293.996 40.4844C293.996 41.6016 293.582 42.4688 292.754 43.0859C291.934 43.6953 290.77 44 289.262 44H283.848ZM285.242 38.1641V42.8281H289.309C290.363 42.8281 291.176 42.625 291.746 42.2188C292.316 41.8125 292.602 41.2266 292.602 40.4609C292.602 39.7578 292.316 39.1992 291.746 38.7852C291.176 38.3711 290.363 38.1641 289.309 38.1641H285.242ZM285.242 36.9922H288.793C290.996 36.9609 292.098 36.2109 292.098 34.7422C292.098 33.9688 291.793 33.4062 291.184 33.0547C290.582 32.6953 289.688 32.5156 288.5 32.5156H285.242V36.9922ZM312.699 44H311.293V32.5273H304.461V44H303.055V31.3203H312.699V44ZM315.688 37.4727C315.688 36.2539 315.922 35.1562 316.391 34.1797C316.867 33.2031 317.535 32.4453 318.395 31.9062C319.262 31.3594 320.242 31.0859 321.336 31.0859C323.023 31.0859 324.391 31.6797 325.438 32.8672C326.484 34.0469 327.008 35.6133 327.008 37.5664V37.8594C327.008 39.0859 326.77 40.1914 326.293 41.1758C325.824 42.1523 325.16 42.9062 324.301 43.4375C323.441 43.9688 322.461 44.2344 321.359 44.2344C319.68 44.2344 318.312 43.6445 317.258 42.4648C316.211 41.2773 315.688 39.707 315.688 37.7539V37.4727ZM317.094 37.8594C317.094 39.375 317.484 40.6211 318.266 41.5977C319.055 42.5664 320.086 43.0508 321.359 43.0508C322.625 43.0508 323.648 42.5664 324.43 41.5977C325.219 40.6211 325.613 39.3359 325.613 37.7422V37.4727C325.613 36.5039 325.434 35.6172 325.074 34.8125C324.715 34.0078 324.211 33.3867 323.562 32.9492C322.914 32.5039 322.172 32.2812 321.336 32.2812C320.086 32.2812 319.066 32.7734 318.277 33.7578C317.488 34.7344 317.094 36.0156 317.094 37.6016V37.8594ZM345.441 38.1406H343.754V44H342.348V38.1406H340.672L335.984 44H334.203L339.453 37.4961L334.789 31.3203H336.488L340.648 36.8867H342.348V31.3203H343.754V36.8867H345.465L349.625 31.3203H351.348L346.66 37.4961L351.922 44H350.129L345.441 38.1406ZM362.176 44C362.035 43.6016 361.945 43.0117 361.906 42.2305C361.414 42.8711 360.785 43.3672 360.02 43.7188C359.262 44.0625 358.457 44.2344 357.605 44.2344C356.387 44.2344 355.398 43.8945 354.641 43.2148C353.891 42.5352 353.516 41.6758 353.516 40.6367C353.516 39.4023 354.027 38.4258 355.051 37.707C356.082 36.9883 357.516 36.6289 359.352 36.6289H361.895V35.1875C361.895 34.2812 361.613 33.5703 361.051 33.0547C360.496 32.5312 359.684 32.2695 358.613 32.2695C357.637 32.2695 356.828 32.5195 356.188 33.0195C355.547 33.5195 355.227 34.1211 355.227 34.8242L353.82 34.8125C353.82 33.8047 354.289 32.9336 355.227 32.1992C356.164 31.457 357.316 31.0859 358.684 31.0859C360.098 31.0859 361.211 31.4414 362.023 32.1523C362.844 32.8555 363.266 33.8398 363.289 35.1055V41.1055C363.289 42.332 363.418 43.25 363.676 43.8594V44H362.176ZM357.77 42.9922C358.707 42.9922 359.543 42.7656 360.277 42.3125C361.02 41.8594 361.559 41.2539 361.895 40.4961V37.707H359.387C357.988 37.7227 356.895 37.9805 356.105 38.4805C355.316 38.9727 354.922 39.6523 354.922 40.5195C354.922 41.2305 355.184 41.8203 355.707 42.2891C356.238 42.7578 356.926 42.9922 357.77 42.9922ZM376.777 44H375.371V38.1875H368.539V44H367.133V31.3203H368.539V37.0039H375.371V31.3203H376.777V44ZM390.734 37.7891C390.734 39.7656 390.297 41.3359 389.422 42.5C388.547 43.6562 387.375 44.2344 385.906 44.2344C384.172 44.2344 382.844 43.625 381.922 42.4062V48.875H380.527V31.3203H381.828L381.898 33.1133C382.812 31.7617 384.137 31.0859 385.871 31.0859C387.387 31.0859 388.574 31.6602 389.434 32.8086C390.301 33.957 390.734 35.5508 390.734 37.5898V37.7891ZM389.328 37.543C389.328 35.9258 388.996 34.6484 388.332 33.7109C387.668 32.7734 386.742 32.3047 385.555 32.3047C384.695 32.3047 383.957 32.5117 383.34 32.9258C382.723 33.3398 382.25 33.9414 381.922 34.7305V40.8125C382.258 41.5391 382.738 42.0938 383.363 42.4766C383.988 42.8594 384.727 43.0508 385.578 43.0508C386.758 43.0508 387.676 42.582 388.332 41.6445C388.996 40.6992 389.328 39.332 389.328 37.543ZM401.855 44C401.715 43.6016 401.625 43.0117 401.586 42.2305C401.094 42.8711 400.465 43.3672 399.699 43.7188C398.941 44.0625 398.137 44.2344 397.285 44.2344C396.066 44.2344 395.078 43.8945 394.32 43.2148C393.57 42.5352 393.195 41.6758 393.195 40.6367C393.195 39.4023 393.707 38.4258 394.73 37.707C395.762 36.9883 397.195 36.6289 399.031 36.6289H401.574V35.1875C401.574 34.2812 401.293 33.5703 400.73 33.0547C400.176 32.5312 399.363 32.2695 398.293 32.2695C397.316 32.2695 396.508 32.5195 395.867 33.0195C395.227 33.5195 394.906 34.1211 394.906 34.8242L393.5 34.8125C393.5 33.8047 393.969 32.9336 394.906 32.1992C395.844 31.457 396.996 31.0859 398.363 31.0859C399.777 31.0859 400.891 31.4414 401.703 32.1523C402.523 32.8555 402.945 33.8398 402.969 35.1055V41.1055C402.969 42.332 403.098 43.25 403.355 43.8594V44H401.855ZM397.449 42.9922C398.387 42.9922 399.223 42.7656 399.957 42.3125C400.699 41.8594 401.238 41.2539 401.574 40.4961V37.707H399.066C397.668 37.7227 396.574 37.9805 395.785 38.4805C394.996 38.9727 394.602 39.6523 394.602 40.5195C394.602 41.2305 394.863 41.8203 395.387 42.2891C395.918 42.7578 396.605 42.9922 397.449 42.9922ZM413.738 42.1016L418.777 31.3203H420.512V44H419.105V33.5938L414.23 44H413.234L408.266 33.3594V44H406.871V31.3203H408.711L413.738 42.1016ZM438.441 31.3203H439.848V44H438.441V33.582L431.598 44H430.203V31.3203H431.598V41.75L438.441 31.3203ZM457.449 44C457.309 43.6016 457.219 43.0117 457.18 42.2305C456.688 42.8711 456.059 43.3672 455.293 43.7188C454.535 44.0625 453.73 44.2344 452.879 44.2344C451.66 44.2344 450.672 43.8945 449.914 43.2148C449.164 42.5352 448.789 41.6758 448.789 40.6367C448.789 39.4023 449.301 38.4258 450.324 37.707C451.355 36.9883 452.789 36.6289 454.625 36.6289H457.168V35.1875C457.168 34.2812 456.887 33.5703 456.324 33.0547C455.77 32.5312 454.957 32.2695 453.887 32.2695C452.91 32.2695 452.102 32.5195 451.461 33.0195C450.82 33.5195 450.5 34.1211 450.5 34.8242L449.094 34.8125C449.094 33.8047 449.562 32.9336 450.5 32.1992C451.438 31.457 452.59 31.0859 453.957 31.0859C455.371 31.0859 456.484 31.4414 457.297 32.1523C458.117 32.8555 458.539 33.8398 458.562 35.1055V41.1055C458.562 42.332 458.691 43.25 458.949 43.8594V44H457.449ZM453.043 42.9922C453.98 42.9922 454.816 42.7656 455.551 42.3125C456.293 41.8594 456.832 41.2539 457.168 40.4961V37.707H454.66C453.262 37.7227 452.168 37.9805 451.379 38.4805C450.59 38.9727 450.195 39.6523 450.195 40.5195C450.195 41.2305 450.457 41.8203 450.98 42.2891C451.512 42.7578 452.199 42.9922 453.043 42.9922ZM465.758 38.1875H463.812V44H462.395V31.3203H463.812V36.9453H465.734L470.387 31.3203H472.156L466.953 37.4727L472.73 44H470.879L465.758 38.1875ZM483.863 32.5156H479.246V44H477.84V32.5156H473.398V31.3203H483.863V32.5156ZM490.145 44.2344C489.066 44.2344 488.09 43.9688 487.215 43.4375C486.348 42.9062 485.672 42.168 485.188 41.2227C484.703 40.2695 484.461 39.2031 484.461 38.0234V37.5195C484.461 36.3008 484.695 35.2031 485.164 34.2266C485.641 33.25 486.301 32.4844 487.145 31.9297C487.988 31.3672 488.902 31.0859 489.887 31.0859C491.426 31.0859 492.645 31.6133 493.543 32.668C494.449 33.7148 494.902 35.1484 494.902 36.9688V37.7539H485.855V38.0234C485.855 39.4609 486.266 40.6602 487.086 41.6211C487.914 42.5742 488.953 43.0508 490.203 43.0508C490.953 43.0508 491.613 42.9141 492.184 42.6406C492.762 42.3672 493.285 41.9297 493.754 41.3281L494.633 41.9961C493.602 43.4883 492.105 44.2344 490.145 44.2344ZM489.887 32.2812C488.832 32.2812 487.941 32.668 487.215 33.4414C486.496 34.2148 486.059 35.2539 485.902 36.5586H493.508V36.4062C493.469 35.1875 493.121 34.1953 492.465 33.4297C491.809 32.6641 490.949 32.2812 489.887 32.2812ZM507.828 37.7891C507.828 39.7656 507.391 41.3359 506.516 42.5C505.641 43.6562 504.469 44.2344 503 44.2344C501.266 44.2344 499.938 43.625 499.016 42.4062V48.875H497.621V31.3203H498.922L498.992 33.1133C499.906 31.7617 501.23 31.0859 502.965 31.0859C504.48 31.0859 505.668 31.6602 506.527 32.8086C507.395 33.957 507.828 35.5508 507.828 37.5898V37.7891ZM506.422 37.543C506.422 35.9258 506.09 34.6484 505.426 33.7109C504.762 32.7734 503.836 32.3047 502.648 32.3047C501.789 32.3047 501.051 32.5117 500.434 32.9258C499.816 33.3398 499.344 33.9414 499.016 34.7305V40.8125C499.352 41.5391 499.832 42.0938 500.457 42.4766C501.082 42.8594 501.82 43.0508 502.672 43.0508C503.852 43.0508 504.77 42.582 505.426 41.6445C506.09 40.6992 506.422 39.332 506.422 37.543ZM518.949 44C518.809 43.6016 518.719 43.0117 518.68 42.2305C518.188 42.8711 517.559 43.3672 516.793 43.7188C516.035 44.0625 515.23 44.2344 514.379 44.2344C513.16 44.2344 512.172 43.8945 511.414 43.2148C510.664 42.5352 510.289 41.6758 510.289 40.6367C510.289 39.4023 510.801 38.4258 511.824 37.707C512.855 36.9883 514.289 36.6289 516.125 36.6289H518.668V35.1875C518.668 34.2812 518.387 33.5703 517.824 33.0547C517.27 32.5312 516.457 32.2695 515.387 32.2695C514.41 32.2695 513.602 32.5195 512.961 33.0195C512.32 33.5195 512 34.1211 512 34.8242L510.594 34.8125C510.594 33.8047 511.062 32.9336 512 32.1992C512.938 31.457 514.09 31.0859 515.457 31.0859C516.871 31.0859 517.984 31.4414 518.797 32.1523C519.617 32.8555 520.039 33.8398 520.062 35.1055V41.1055C520.062 42.332 520.191 43.25 520.449 43.8594V44H518.949ZM514.543 42.9922C515.48 42.9922 516.316 42.7656 517.051 42.3125C517.793 41.8594 518.332 41.2539 518.668 40.4961V37.707H516.16C514.762 37.7227 513.668 37.9805 512.879 38.4805C512.09 38.9727 511.695 39.6523 511.695 40.5195C511.695 41.2305 511.957 41.8203 512.48 42.2891C513.012 42.7578 513.699 42.9922 514.543 42.9922ZM530.832 42.1016L535.871 31.3203H537.605V44H536.199V33.5938L531.324 44H530.328L525.359 33.3594V44H523.965V31.3203H525.805L530.832 42.1016Z" fill="white" fill-opacity="0.4"/>
<path fill-rule="evenodd" clip-rule="evenodd" d="M95 35C95 40.5228 90.5228 45 85 45C79.4772 45 75 40.5228 75 35C75 29.4772 79.4772 25 85 25C90.5228 25 95 29.4772 95 35ZM93.4002 46.2009C91.0603 47.9585 88.1518 49 85 49C77.268 49 71 42.732 71 35C71 27.268 77.268 21 85 21C92.732 21 99 27.268 99 35C99 38.1519 97.9584 41.0605 96.2007 43.4004C96.2403 43.4302 96.2791 43.4617 96.317 43.4949L104.317 50.4949C105.148 51.2222 105.233 52.4858 104.505 53.317C103.778 54.1483 102.514 54.2325 101.683 53.5052L93.683 46.5052C93.5764 46.4119 93.4821 46.3098 93.4002 46.2009Z" fill="white"/>
</svg>
