<svg width="1440" height="74" viewBox="0 0 1440 74" fill="none" xmlns="http://www.w3.org/2000/svg">
<g filter="url(#filter0_b_2_395)">
<rect width="1440" height="74" rx="2" fill="#1C1C1C" fill-opacity="0.8"/>
</g>
<rect x="-4" y="72" width="1448" height="2" rx="1" fill="white"/>
<path d="M153.734 28.168H147.887V44H146.445V28.168H140.609V26.9375H153.734V28.168ZM154.227 37.4727C154.227 36.2539 154.461 35.1562 154.93 34.1797C155.406 33.2031 156.074 32.4453 156.934 31.9062C157.801 31.3594 158.781 31.0859 159.875 31.0859C161.562 31.0859 162.93 31.6797 163.977 32.8672C165.023 34.0469 165.547 35.6133 165.547 37.5664V37.8594C165.547 39.0859 165.309 40.1914 164.832 41.1758C164.363 42.1523 163.699 42.9062 162.84 43.4375C161.98 43.9688 161 44.2344 159.898 44.2344C158.219 44.2344 156.852 43.6445 155.797 42.4648C154.75 41.2773 154.227 39.707 154.227 37.7539V37.4727ZM155.633 37.8594C155.633 39.375 156.023 40.6211 156.805 41.5977C157.594 42.5664 158.625 43.0508 159.898 43.0508C161.164 43.0508 162.188 42.5664 162.969 41.5977C163.758 40.6211 164.152 39.3359 164.152 37.7422V37.4727C164.152 36.5039 163.973 35.6172 163.613 34.8125C163.254 34.0078 162.75 33.3867 162.102 32.9492C161.453 32.5039 160.711 32.2812 159.875 32.2812C158.625 32.2812 157.605 32.7734 156.816 33.7578C156.027 34.7344 155.633 36.0156 155.633 37.6016V37.8594ZM175.473 42.1016L180.512 31.3203H182.246V44H180.84V33.5938L175.965 44H174.969L170 33.3594V44H168.605V31.3203H170.445L175.473 42.1016ZM197.363 34.1562L202.168 26.9375H203.891L198.242 35.3516L204.066 44H202.332L197.363 36.5469L192.371 44H190.66L196.496 35.3516L190.836 26.9375H192.559L197.363 34.1562ZM210.77 32.2812C209.801 32.2812 208.992 32.5625 208.344 33.125C207.695 33.6797 207.371 34.3984 207.371 35.2812H206.012C206.012 34.5156 206.223 33.8125 206.645 33.1719C207.074 32.5312 207.66 32.0234 208.402 31.6484C209.145 31.2734 209.934 31.0859 210.77 31.0859C212.324 31.0859 213.594 31.6328 214.578 32.7266C215.562 33.8125 216.094 35.2383 216.172 37.0039L216.184 37.9062C216.184 39.125 215.957 40.2227 215.504 41.1992C215.051 42.168 214.418 42.918 213.605 43.4492C212.793 43.9727 211.852 44.2344 210.781 44.2344C209.391 44.2344 208.246 43.8164 207.348 42.9805C206.457 42.1367 206.012 41.0469 206.012 39.7109H207.371C207.371 40.7188 207.691 41.5273 208.332 42.1367C208.98 42.7461 209.797 43.0508 210.781 43.0508C211.953 43.0508 212.895 42.6133 213.605 41.7383C214.324 40.8633 214.711 39.6797 214.766 38.1875H209.035V37.0039H214.766C214.695 35.5742 214.305 34.4297 213.594 33.5703C212.891 32.7109 211.949 32.2812 210.77 32.2812ZM229.121 44H227.715V38.1875H220.883V44H219.477V31.3203H220.883V37.0039H227.715V31.3203H229.121V44ZM236.328 38.1875H234.383V44H232.965V31.3203H234.383V36.9453H236.305L240.957 31.3203H242.727L237.523 37.4727L243.301 44H241.449L236.328 38.1875ZM249.828 43.0508C250.805 43.0508 251.621 42.7773 252.277 42.2305C252.941 41.6758 253.301 40.9609 253.355 40.0859H254.703C254.664 40.8594 254.422 41.5664 253.977 42.207C253.531 42.8398 252.938 43.3359 252.195 43.6953C251.461 44.0547 250.672 44.2344 249.828 44.2344C248.164 44.2344 246.844 43.6562 245.867 42.5C244.898 41.3438 244.414 39.7891 244.414 37.8359V37.4141C244.414 36.1641 244.633 35.0586 245.07 34.0977C245.508 33.1367 246.133 32.3945 246.945 31.8711C247.766 31.3477 248.723 31.0859 249.816 31.0859C251.207 31.0859 252.352 31.5 253.25 32.3281C254.156 33.1562 254.641 34.2461 254.703 35.5977H253.355C253.293 34.6055 252.934 33.8047 252.277 33.1953C251.629 32.5859 250.809 32.2812 249.816 32.2812C248.551 32.2812 247.566 32.7383 246.863 33.6523C246.168 34.5664 245.82 35.8477 245.82 37.4961V37.9062C245.82 39.5234 246.168 40.7852 246.863 41.6914C247.566 42.5977 248.555 43.0508 249.828 43.0508Z" fill="white"/>
<path fill-rule="evenodd" clip-rule="evenodd" d="M112 34C112 39.5228 107.523 44 102 44C96.4772 44 92 39.5228 92 34C92 28.4772 96.4772 24 102 24C107.523 24 112 28.4772 112 34ZM110.4 45.2009C108.06 46.9585 105.152 48 102 48C94.268 48 88 41.732 88 34C88 26.268 94.268 20 102 20C109.732 20 116 26.268 116 34C116 37.1519 114.958 40.0605 113.201 42.4004C113.24 42.4302 113.279 42.4617 113.317 42.4949L121.317 49.4949C122.148 50.2222 122.233 51.4858 121.505 52.317C120.778 53.1483 119.514 53.2325 118.683 52.5052L110.683 45.5052C110.576 45.4119 110.482 45.3098 110.4 45.2009Z" fill="white"/>
<path d="M1322.76 22.7573L1336 36M1336 36L1349.24 49.2426M1336 36L1349.24 22.7573M1336 36L1322.76 49.2426" stroke="white" stroke-opacity="0.4" stroke-width="4" stroke-linecap="round" stroke-linejoin="round"/>
<defs>
<filter id="filter0_b_2_395" x="-4" y="-4" width="1448" height="82" filterUnits="userSpaceOnUse" color-interpolation-filters="sRGB">
<feFlood flood-opacity="0" result="BackgroundImageFix"/>
<feGaussianBlur in="BackgroundImageFix" stdDeviation="2"/>
<feComposite in2="SourceAlpha" operator="in" result="effect1_backgroundBlur_2_395"/>
<feBlend mode="normal" in="SourceGraphic" in2="effect1_backgroundBlur_2_395" result="shape"/>
</filter>
</defs>
</svg>
