<svg width="144" height="12" viewBox="0 0 144 12" fill="none" xmlns="http://www.w3.org/2000/svg">
<path d="M6.55664 5.50195C6.55664 6.09961 6.38672 6.55664 6.04688 6.87305C5.71094 7.18555 5.23438 7.3418 4.61719 7.3418C4.00391 7.3418 3.51172 7.13672 3.14062 6.72656C2.77344 6.3125 2.58984 5.75 2.58984 5.03906V4.39453C2.58984 3.70703 2.77539 3.1582 3.14648 2.74805C3.52148 2.33398 4.01172 2.12695 4.61719 2.12695C5.24219 2.12695 5.72266 2.28711 6.05859 2.60742C6.39453 2.92773 6.5625 3.37891 6.5625 3.96094H5.70703C5.70703 3.57422 5.61328 3.29883 5.42578 3.13477C5.24219 2.9668 4.97266 2.88281 4.61719 2.88281C4.25 2.88281 3.96094 3.01758 3.75 3.28711C3.53906 3.55664 3.43359 3.93164 3.43359 4.41211V5.07422C3.43359 5.54297 3.53906 5.91211 3.75 6.18164C3.96094 6.45117 4.25 6.58594 4.61719 6.58594C4.97656 6.58594 5.24609 6.50391 5.42578 6.33984C5.60938 6.17578 5.70117 5.89648 5.70117 5.50195H6.55664ZM1.20703 4.72852C1.20703 5.40039 1.36328 6.02344 1.67578 6.59766C1.98828 7.16797 2.41211 7.61523 2.94727 7.93945C3.48633 8.26367 4.06836 8.42578 4.69336 8.42578C5.31836 8.42578 5.89844 8.26367 6.43359 7.93945C6.96875 7.61523 7.39258 7.16797 7.70508 6.59766C8.01758 6.02344 8.17383 5.40039 8.17383 4.72852C8.17383 4.06445 8.01953 3.44922 7.71094 2.88281C7.40234 2.31641 6.97852 1.87109 6.43945 1.54688C5.9043 1.21875 5.32227 1.05469 4.69336 1.05469C4.06836 1.05469 3.48633 1.2168 2.94727 1.54102C2.4082 1.86133 1.98242 2.30664 1.66992 2.87695C1.36133 3.44727 1.20703 4.06445 1.20703 4.72852ZM0.533203 4.72852C0.533203 3.93945 0.714844 3.20703 1.07812 2.53125C1.44531 1.85547 1.95117 1.32422 2.5957 0.9375C3.24414 0.546875 3.94336 0.351562 4.69336 0.351562C5.44336 0.351562 6.14062 0.546875 6.78516 0.9375C7.42969 1.32422 7.93359 1.85547 8.29688 2.53125C8.66406 3.20703 8.84766 3.93945 8.84766 4.72852C8.84766 5.49805 8.67188 6.21875 8.32031 6.89062C7.96875 7.5625 7.46875 8.10352 6.82031 8.51367C6.17578 8.91992 5.4668 9.12305 4.69336 9.12305C3.92383 9.12305 3.21484 8.92188 2.56641 8.51953C1.92188 8.11328 1.42188 7.57422 1.06641 6.90234C0.710938 6.23047 0.533203 5.50586 0.533203 4.72852ZM18.709 9H13.1191V8.2207L16.0723 4.93945C16.5098 4.44336 16.8105 4.04102 16.9746 3.73242C17.1426 3.41992 17.2266 3.09766 17.2266 2.76562C17.2266 2.32031 17.0918 1.95508 16.8223 1.66992C16.5527 1.38477 16.1934 1.24219 15.7441 1.24219C15.2051 1.24219 14.7852 1.39648 14.4844 1.70508C14.1875 2.00977 14.0391 2.43555 14.0391 2.98242H12.9551C12.9551 2.19727 13.207 1.5625 13.7109 1.07812C14.2188 0.59375 14.8965 0.351562 15.7441 0.351562C16.5371 0.351562 17.1641 0.560547 17.625 0.978516C18.0859 1.39258 18.3164 1.94531 18.3164 2.63672C18.3164 3.47656 17.7812 4.47656 16.7109 5.63672L14.4258 8.11523H18.709V9ZM25.207 5.36133C25.207 6.63086 24.9902 7.57422 24.5566 8.19141C24.123 8.80859 23.4453 9.11719 22.5234 9.11719C21.6133 9.11719 20.9395 8.81641 20.502 8.21484C20.0645 7.60938 19.8379 6.70703 19.8223 5.50781V4.06055C19.8223 2.80664 20.0391 1.875 20.4727 1.26562C20.9062 0.65625 21.5859 0.351562 22.5117 0.351562C23.4297 0.351562 24.1055 0.646484 24.5391 1.23633C24.9727 1.82227 25.1953 2.72852 25.207 3.95508V5.36133ZM24.123 3.87891C24.123 2.96094 23.9941 2.29297 23.7363 1.875C23.4785 1.45312 23.0703 1.24219 22.5117 1.24219C21.957 1.24219 21.5527 1.45117 21.2988 1.86914C21.0449 2.28711 20.9141 2.92969 20.9062 3.79688V5.53125C20.9062 6.45312 21.0391 7.13477 21.3047 7.57617C21.5742 8.01367 21.9805 8.23242 22.5234 8.23242C23.0586 8.23242 23.4551 8.02539 23.7129 7.61133C23.9746 7.19727 24.1113 6.54492 24.123 5.6543V3.87891ZM30.1582 9H29.0684V1.77539L26.8828 2.57812V1.59375L29.9883 0.427734H30.1582V9ZM37.4883 5.25C37.2617 5.51953 36.9902 5.73633 36.6738 5.90039C36.3613 6.06445 36.0176 6.14648 35.6426 6.14648C35.1504 6.14648 34.7207 6.02539 34.3535 5.7832C33.9902 5.54102 33.709 5.20117 33.5098 4.76367C33.3105 4.32227 33.2109 3.83594 33.2109 3.30469C33.2109 2.73438 33.3184 2.2207 33.5332 1.76367C33.752 1.30664 34.0605 0.957031 34.459 0.714844C34.8574 0.472656 35.3223 0.351562 35.8535 0.351562C36.6973 0.351562 37.3613 0.667969 37.8457 1.30078C38.334 1.92969 38.5781 2.78906 38.5781 3.87891V4.19531C38.5781 5.85547 38.25 7.06836 37.5938 7.83398C36.9375 8.5957 35.9473 8.98633 34.623 9.00586H34.4121V8.0918H34.6406C35.5352 8.07617 36.2227 7.84375 36.7031 7.39453C37.1836 6.94141 37.4453 6.22656 37.4883 5.25ZM35.8184 5.25C36.1816 5.25 36.5156 5.13867 36.8203 4.91602C37.1289 4.69336 37.3535 4.41797 37.4941 4.08984V3.65625C37.4941 2.94531 37.3398 2.36719 37.0312 1.92188C36.7227 1.47656 36.332 1.25391 35.8594 1.25391C35.3828 1.25391 35 1.4375 34.7109 1.80469C34.4219 2.16797 34.2773 2.64844 34.2773 3.24609C34.2773 3.82812 34.416 4.30859 34.6934 4.6875C34.9746 5.0625 35.3496 5.25 35.8184 5.25ZM48.9902 1.39453H46.248V9H45.1289V1.39453H42.3926V0.46875H48.9902V1.39453ZM53.543 2.66016H54.627V9H53.543V4.37695L50.6191 9H49.5352V2.66016H50.6191V7.28906L53.543 2.66016ZM61.5469 9H60.4629V6.29297H57.5508V9H56.4609V2.66016H57.5508V5.4082H60.4629V2.66016H61.5469V9ZM64.4766 4.8457H66.123C66.8418 4.85352 67.4102 5.04102 67.8281 5.4082C68.2461 5.77539 68.4551 6.27344 68.4551 6.90234C68.4551 7.53516 68.2402 8.04297 67.8105 8.42578C67.3809 8.80859 66.8027 9 66.0762 9H63.3926V2.66016H64.4766V4.8457ZM64.4766 5.73047V8.11523H66.0879C66.4941 8.11523 66.8086 8.01172 67.0312 7.80469C67.2539 7.59375 67.3652 7.30664 67.3652 6.94336C67.3652 6.5918 67.2559 6.30469 67.0371 6.08203C66.8223 5.85547 66.5195 5.73828 66.1289 5.73047H64.4766ZM71.7832 6.29883H70.9922V9H69.9023V2.66016H70.9922V5.34375H71.7012L73.834 2.66016H75.1465L72.6387 5.70703L75.3574 9H73.9805L71.7832 6.29883ZM75.873 5.77148C75.873 5.15039 75.9941 4.5918 76.2363 4.0957C76.4824 3.59961 76.8223 3.2168 77.2559 2.94727C77.6934 2.67773 78.1914 2.54297 78.75 2.54297C79.6133 2.54297 80.3105 2.8418 80.8418 3.43945C81.377 4.03711 81.6445 4.83203 81.6445 5.82422V5.90039C81.6445 6.51758 81.5254 7.07227 81.2871 7.56445C81.0527 8.05273 80.7148 8.43359 80.2734 8.70703C79.8359 8.98047 79.332 9.11719 78.7617 9.11719C77.9023 9.11719 77.2051 8.81836 76.6699 8.2207C76.1387 7.62305 75.873 6.83203 75.873 5.84766V5.77148ZM76.9629 5.90039C76.9629 6.60352 77.125 7.16797 77.4492 7.59375C77.7773 8.01953 78.2148 8.23242 78.7617 8.23242C79.3125 8.23242 79.75 8.01758 80.0742 7.58789C80.3984 7.1543 80.5605 6.54883 80.5605 5.77148C80.5605 5.07617 80.3945 4.51367 80.0625 4.08398C79.7344 3.65039 79.2969 3.43359 78.75 3.43359C78.2148 3.43359 77.7832 3.64648 77.4551 4.07227C77.127 4.49805 76.9629 5.10742 76.9629 5.90039ZM82.7695 5.94727C82.7695 4.88867 82.9746 4.05664 83.3848 3.45117C83.7949 2.8457 84.3574 2.54297 85.0723 2.54297C85.4043 2.54297 85.6953 2.59961 85.9453 2.71289V0H87.0293V2.74805C87.3027 2.61133 87.623 2.54297 87.9902 2.54297C88.709 2.54297 89.2734 2.8457 89.6836 3.45117C90.0938 4.05664 90.2988 4.92969 90.2988 6.07031C90.2988 7.00391 90.0938 7.74609 89.6836 8.29688C89.2773 8.84766 88.7168 9.12305 88.002 9.12305C87.623 9.12305 87.2988 9.06055 87.0293 8.93555V11.4375H85.9453V8.95312C85.6875 9.06641 85.3926 9.12305 85.0605 9.12305C84.3496 9.12305 83.7891 8.84766 83.3789 8.29688C82.9727 7.74609 82.7695 6.99219 82.7695 6.03516V5.94727ZM89.2148 5.94727C89.2148 5.15039 89.0781 4.5332 88.8047 4.0957C88.5312 3.6543 88.1543 3.43359 87.6738 3.43359C87.4277 3.43359 87.2129 3.47266 87.0293 3.55078V8.13867C87.2051 8.20508 87.4238 8.23828 87.6855 8.23828C88.1699 8.23828 88.5449 8.05078 88.8105 7.67578C89.0801 7.30078 89.2148 6.72461 89.2148 5.94727ZM83.8535 6.07031C83.8535 6.78125 83.9805 7.32031 84.2344 7.6875C84.4883 8.05469 84.8535 8.23828 85.3301 8.23828C85.5566 8.23828 85.7617 8.20312 85.9453 8.13281V3.5332C85.7812 3.4668 85.5801 3.43359 85.3418 3.43359C84.8652 3.43359 84.498 3.64648 84.2402 4.07227C83.9824 4.49805 83.8535 5.16406 83.8535 6.07031ZM91.4766 5.94727C91.4766 4.88867 91.6816 4.05664 92.0918 3.45117C92.502 2.8457 93.0645 2.54297 93.7793 2.54297C94.1113 2.54297 94.4023 2.59961 94.6523 2.71289V0H95.7363V2.74805C96.0098 2.61133 96.3301 2.54297 96.6973 2.54297C97.416 2.54297 97.9805 2.8457 98.3906 3.45117C98.8008 4.05664 99.0059 4.92969 99.0059 6.07031C99.0059 7.00391 98.8008 7.74609 98.3906 8.29688C97.9844 8.84766 97.4238 9.12305 96.709 9.12305C96.3301 9.12305 96.0059 9.06055 95.7363 8.93555V11.4375H94.6523V8.95312C94.3945 9.06641 94.0996 9.12305 93.7676 9.12305C93.0566 9.12305 92.4961 8.84766 92.0859 8.29688C91.6797 7.74609 91.4766 6.99219 91.4766 6.03516V5.94727ZM97.9219 5.94727C97.9219 5.15039 97.7852 4.5332 97.5117 4.0957C97.2383 3.6543 96.8613 3.43359 96.3809 3.43359C96.1348 3.43359 95.9199 3.47266 95.7363 3.55078V8.13867C95.9121 8.20508 96.1309 8.23828 96.3926 8.23828C96.877 8.23828 97.252 8.05078 97.5176 7.67578C97.7871 7.30078 97.9219 6.72461 97.9219 5.94727ZM92.5605 6.07031C92.5605 6.78125 92.6875 7.32031 92.9414 7.6875C93.1953 8.05469 93.5605 8.23828 94.0371 8.23828C94.2637 8.23828 94.4688 8.20312 94.6523 8.13281V3.5332C94.4883 3.4668 94.2871 3.43359 94.0488 3.43359C93.5723 3.43359 93.2051 3.64648 92.9473 4.07227C92.6895 4.49805 92.5605 5.16406 92.5605 6.07031ZM110.08 9H108.949V1.39453H104.742V9H103.617V0.46875H110.08V9ZM117.316 5.90039C117.316 6.86523 117.096 7.64258 116.654 8.23242C116.213 8.82227 115.615 9.11719 114.861 9.11719C114.092 9.11719 113.486 8.87305 113.045 8.38477V11.4375H111.961V2.66016H112.951L113.004 3.36328C113.445 2.81641 114.059 2.54297 114.844 2.54297C115.605 2.54297 116.207 2.83008 116.648 3.4043C117.094 3.97852 117.316 4.77734 117.316 5.80078V5.90039ZM116.232 5.77734C116.232 5.0625 116.08 4.49805 115.775 4.08398C115.471 3.66992 115.053 3.46289 114.521 3.46289C113.865 3.46289 113.373 3.75391 113.045 4.33594V7.36523C113.369 7.94336 113.865 8.23242 114.533 8.23242C115.053 8.23242 115.465 8.02734 115.77 7.61719C116.078 7.20312 116.232 6.58984 116.232 5.77734ZM118.412 5.77148C118.412 5.15039 118.533 4.5918 118.775 4.0957C119.021 3.59961 119.361 3.2168 119.795 2.94727C120.232 2.67773 120.73 2.54297 121.289 2.54297C122.152 2.54297 122.85 2.8418 123.381 3.43945C123.916 4.03711 124.184 4.83203 124.184 5.82422V5.90039C124.184 6.51758 124.064 7.07227 123.826 7.56445C123.592 8.05273 123.254 8.43359 122.812 8.70703C122.375 8.98047 121.871 9.11719 121.301 9.11719C120.441 9.11719 119.744 8.81836 119.209 8.2207C118.678 7.62305 118.412 6.83203 118.412 5.84766V5.77148ZM119.502 5.90039C119.502 6.60352 119.664 7.16797 119.988 7.59375C120.316 8.01953 120.754 8.23242 121.301 8.23242C121.852 8.23242 122.289 8.01758 122.613 7.58789C122.938 7.1543 123.1 6.54883 123.1 5.77148C123.1 5.07617 122.934 4.51367 122.602 4.08398C122.273 3.65039 121.836 3.43359 121.289 3.43359C120.754 3.43359 120.322 3.64648 119.994 4.07227C119.666 4.49805 119.502 5.10742 119.502 5.90039ZM127.518 6.29883H126.727V9H125.637V2.66016H126.727V5.34375H127.436L129.568 2.66016H130.881L128.373 5.70703L131.092 9H129.715L127.518 6.29883ZM135.938 9C135.875 8.875 135.824 8.65234 135.785 8.33203C135.281 8.85547 134.68 9.11719 133.98 9.11719C133.355 9.11719 132.842 8.94141 132.439 8.58984C132.041 8.23438 131.842 7.78516 131.842 7.24219C131.842 6.58203 132.092 6.07031 132.592 5.70703C133.096 5.33984 133.803 5.15625 134.713 5.15625H135.768V4.6582C135.768 4.2793 135.654 3.97852 135.428 3.75586C135.201 3.5293 134.867 3.41602 134.426 3.41602C134.039 3.41602 133.715 3.51367 133.453 3.70898C133.191 3.9043 133.061 4.14062 133.061 4.41797H131.971C131.971 4.10156 132.082 3.79688 132.305 3.50391C132.531 3.20703 132.836 2.97266 133.219 2.80078C133.605 2.62891 134.029 2.54297 134.49 2.54297C135.221 2.54297 135.793 2.72656 136.207 3.09375C136.621 3.45703 136.836 3.95898 136.852 4.59961V7.51758C136.852 8.09961 136.926 8.5625 137.074 8.90625V9H135.938ZM134.139 8.17383C134.479 8.17383 134.801 8.08594 135.105 7.91016C135.41 7.73438 135.631 7.50586 135.768 7.22461V5.92383H134.918C133.59 5.92383 132.926 6.3125 132.926 7.08984C132.926 7.42969 133.039 7.69531 133.266 7.88672C133.492 8.07812 133.783 8.17383 134.139 8.17383ZM143.168 3.53906H141.041V9H139.957V3.53906H137.871V2.66016H143.168V3.53906Z" fill="white" fill-opacity="0.4"/>
</svg>
