<svg width="121" height="16" viewBox="0 0 121 16" fill="none" xmlns="http://www.w3.org/2000/svg">
<path d="M0.320312 12V0.625H4.03906C5.27344 0.625 6.20052 0.880208 6.82031 1.39062C7.44531 1.90104 7.75781 2.65625 7.75781 3.65625C7.75781 4.1875 7.60677 4.65885 7.30469 5.07031C7.0026 5.47656 6.59115 5.79167 6.07031 6.01562C6.6849 6.1875 7.16927 6.51562 7.52344 7C7.88281 7.47917 8.0625 8.05208 8.0625 8.71875C8.0625 9.73958 7.73177 10.5417 7.07031 11.125C6.40885 11.7083 5.47396 12 4.26562 12H0.320312ZM1.82031 6.67969V10.7734H4.29688C4.99479 10.7734 5.54427 10.5938 5.94531 10.2344C6.35156 9.86979 6.55469 9.36979 6.55469 8.73438C6.55469 7.36458 5.8099 6.67969 4.32031 6.67969H1.82031ZM1.82031 5.47656H4.08594C4.74219 5.47656 5.26562 5.3125 5.65625 4.98438C6.05208 4.65625 6.25 4.21094 6.25 3.64844C6.25 3.02344 6.06771 2.57031 5.70312 2.28906C5.33854 2.0026 4.78385 1.85938 4.03906 1.85938H1.82031V5.47656ZM13.5703 12.1562C12.4245 12.1562 11.4922 11.7812 10.7734 11.0312C10.0547 10.276 9.69531 9.26823 9.69531 8.00781V7.74219C9.69531 6.90365 9.85417 6.15625 10.1719 5.5C10.4948 4.83854 10.9427 4.32292 11.5156 3.95312C12.0938 3.57812 12.7188 3.39062 13.3906 3.39062C14.4896 3.39062 15.3438 3.7526 15.9531 4.47656C16.5625 5.20052 16.8672 6.23698 16.8672 7.58594V8.1875H11.1406C11.1615 9.02083 11.4036 9.69531 11.8672 10.2109C12.3359 10.7214 12.9297 10.9766 13.6484 10.9766C14.1589 10.9766 14.5911 10.8724 14.9453 10.6641C15.2995 10.4557 15.6094 10.1797 15.875 9.83594L16.7578 10.5234C16.0495 11.612 14.987 12.1562 13.5703 12.1562ZM13.3906 4.57812C12.8073 4.57812 12.3177 4.79167 11.9219 5.21875C11.526 5.64062 11.2812 6.23438 11.1875 7H15.4219V6.89062C15.3802 6.15625 15.1823 5.58854 14.8281 5.1875C14.474 4.78125 13.9948 4.57812 13.3906 4.57812ZM21.9375 10.9766C22.4531 10.9766 22.9036 10.8203 23.2891 10.5078C23.6745 10.1953 23.888 9.80469 23.9297 9.33594H25.2969C25.2708 9.82031 25.1042 10.2812 24.7969 10.7188C24.4896 11.1562 24.0781 11.5052 23.5625 11.7656C23.0521 12.026 22.5104 12.1562 21.9375 12.1562C20.7865 12.1562 19.8698 11.7734 19.1875 11.0078C18.5104 10.237 18.1719 9.1849 18.1719 7.85156V7.60938C18.1719 6.78646 18.3229 6.05469 18.625 5.41406C18.9271 4.77344 19.3594 4.27604 19.9219 3.92188C20.4896 3.56771 21.1589 3.39062 21.9297 3.39062C22.8776 3.39062 23.6641 3.67448 24.2891 4.24219C24.9193 4.8099 25.2552 5.54688 25.2969 6.45312H23.9297C23.888 5.90625 23.6797 5.45833 23.3047 5.10938C22.9349 4.75521 22.4766 4.57812 21.9297 4.57812C21.1953 4.57812 20.625 4.84375 20.2188 5.375C19.8177 5.90104 19.6172 6.66406 19.6172 7.66406V7.9375C19.6172 8.91146 19.8177 9.66146 20.2188 10.1875C20.6198 10.7135 21.1927 10.9766 21.9375 10.9766ZM30.4297 12.1562C29.2839 12.1562 28.3516 11.7812 27.6328 11.0312C26.9141 10.276 26.5547 9.26823 26.5547 8.00781V7.74219C26.5547 6.90365 26.7135 6.15625 27.0312 5.5C27.3542 4.83854 27.8021 4.32292 28.375 3.95312C28.9531 3.57812 29.5781 3.39062 30.25 3.39062C31.349 3.39062 32.2031 3.7526 32.8125 4.47656C33.4219 5.20052 33.7266 6.23698 33.7266 7.58594V8.1875H28C28.0208 9.02083 28.263 9.69531 28.7266 10.2109C29.1953 10.7214 29.7891 10.9766 30.5078 10.9766C31.0182 10.9766 31.4505 10.8724 31.8047 10.6641C32.1589 10.4557 32.4688 10.1797 32.7344 9.83594L33.6172 10.5234C32.9089 11.612 31.8464 12.1562 30.4297 12.1562ZM30.25 4.57812C29.6667 4.57812 29.1771 4.79167 28.7812 5.21875C28.3854 5.64062 28.1406 6.23438 28.0469 7H32.2812V6.89062C32.2396 6.15625 32.0417 5.58854 31.6875 5.1875C31.3333 4.78125 30.8542 4.57812 30.25 4.57812ZM42.3125 12H40.8672V8.39062H36.9844V12H35.5312V3.54688H36.9844V7.21094H40.8672V3.54688H42.3125V12ZM51.5469 12H50.1016V8.39062H46.2188V12H44.7656V3.54688H46.2188V7.21094H50.1016V3.54688H51.5469V12ZM59.3438 3.54688H60.7891V12H59.3438V5.83594L55.4453 12H54V3.54688H55.4453V9.71875L59.3438 3.54688ZM68.5781 3.54688H70.0234V12H68.5781V5.83594L64.6797 12H63.2344V3.54688H64.6797V9.71875L68.5781 3.54688ZM68.9688 0.46875C68.9688 1.09896 68.7526 1.60677 68.3203 1.99219C67.8932 2.3724 67.3307 2.5625 66.6328 2.5625C65.9349 2.5625 65.3698 2.36979 64.9375 1.98438C64.5052 1.59896 64.2891 1.09375 64.2891 0.46875H65.4688C65.4688 0.833333 65.5677 1.11979 65.7656 1.32812C65.9635 1.53125 66.2526 1.63281 66.6328 1.63281C66.9974 1.63281 67.2812 1.53125 67.4844 1.32812C67.6927 1.125 67.7969 0.838542 67.7969 0.46875H68.9688ZM76.2422 10.8203L76.7422 10.2031C77.3047 9.47396 77.625 8.38021 77.7031 6.92188L77.8359 3.54688H83.2812V10.8203H84.3672V14.4844H82.9219V12H77.0234V14.4844H75.5781L75.5859 10.8203H76.2422ZM77.9531 10.8203H81.8359V4.88281H79.2344L79.1484 6.89844C79.0599 8.58073 78.6615 9.88802 77.9531 10.8203ZM93.1094 7.86719C93.1094 9.15365 92.8151 10.1901 92.2266 10.9766C91.638 11.763 90.8411 12.1562 89.8359 12.1562C88.8099 12.1562 88.0026 11.8307 87.4141 11.1797V15.25H85.9688V3.54688H87.2891L87.3594 4.48438C87.9479 3.75521 88.7656 3.39062 89.8125 3.39062C90.8281 3.39062 91.6302 3.77344 92.2188 4.53906C92.8125 5.30469 93.1094 6.36979 93.1094 7.73438V7.86719ZM91.6641 7.70312C91.6641 6.75 91.4609 5.9974 91.0547 5.44531C90.6484 4.89323 90.0911 4.61719 89.3828 4.61719C88.5078 4.61719 87.8516 5.00521 87.4141 5.78125V9.82031C87.8464 10.5911 88.5078 10.9766 89.3984 10.9766C90.0911 10.9766 90.6406 10.7031 91.0469 10.1562C91.4583 9.60417 91.6641 8.78646 91.6641 7.70312ZM94.5703 7.69531C94.5703 6.86719 94.7318 6.1224 95.0547 5.46094C95.3828 4.79948 95.8359 4.28906 96.4141 3.92969C96.9974 3.57031 97.6615 3.39062 98.4062 3.39062C99.5573 3.39062 100.487 3.78906 101.195 4.58594C101.909 5.38281 102.266 6.44271 102.266 7.76562V7.86719C102.266 8.6901 102.107 9.42969 101.789 10.0859C101.477 10.737 101.026 11.2448 100.438 11.6094C99.8542 11.974 99.1823 12.1562 98.4219 12.1562C97.276 12.1562 96.3464 11.7578 95.6328 10.9609C94.9245 10.1641 94.5703 9.10938 94.5703 7.79688V7.69531ZM96.0234 7.86719C96.0234 8.80469 96.2396 9.55729 96.6719 10.125C97.1094 10.6927 97.6927 10.9766 98.4219 10.9766C99.1562 10.9766 99.7396 10.6901 100.172 10.1172C100.604 9.53906 100.82 8.73177 100.82 7.69531C100.82 6.76823 100.599 6.01823 100.156 5.44531C99.7188 4.86719 99.1354 4.57812 98.4062 4.57812C97.6927 4.57812 97.1172 4.86198 96.6797 5.42969C96.2422 5.9974 96.0234 6.8099 96.0234 7.86719ZM108.727 5.85938C108.727 5.46354 108.576 5.15104 108.273 4.92188C107.971 4.6875 107.557 4.57031 107.031 4.57031C106.521 4.57031 106.094 4.70312 105.75 4.96875C105.411 5.23438 105.242 5.54688 105.242 5.90625H103.805C103.805 5.17188 104.112 4.57031 104.727 4.10156C105.341 3.63281 106.109 3.39844 107.031 3.39844C108.021 3.39844 108.792 3.61198 109.344 4.03906C109.896 4.46094 110.172 5.0651 110.172 5.85156C110.172 6.23177 110.057 6.58073 109.828 6.89844C109.599 7.21615 109.273 7.46875 108.852 7.65625C109.836 7.98958 110.328 8.64583 110.328 9.625C110.328 10.401 110.029 11.0156 109.43 11.4688C108.831 11.9219 108.031 12.1484 107.031 12.1484C106.057 12.1484 105.253 11.9115 104.617 11.4375C103.987 10.9583 103.672 10.3125 103.672 9.5H105.109C105.109 9.91146 105.292 10.2656 105.656 10.5625C106.026 10.8542 106.484 11 107.031 11C107.583 11 108.029 10.8724 108.367 10.6172C108.706 10.362 108.875 10.0312 108.875 9.625C108.875 9.15104 108.732 8.8125 108.445 8.60938C108.164 8.40104 107.724 8.29688 107.125 8.29688H105.68V7.07812H107.25C108.234 7.05208 108.727 6.64583 108.727 5.85938ZM112.133 10.8203L112.633 10.2031C113.195 9.47396 113.516 8.38021 113.594 6.92188L113.727 3.54688H119.172V10.8203H120.258V14.4844H118.812V12H112.914V14.4844H111.469L111.477 10.8203H112.133ZM113.844 10.8203H117.727V4.88281H115.125L115.039 6.89844C114.951 8.58073 114.552 9.88802 113.844 10.8203Z" fill="black" fill-opacity="0.8"/>
</svg>
