<svg width="131" height="36" viewBox="0 0 131 36" fill="none" xmlns="http://www.w3.org/2000/svg">
<rect width="131" height="36" rx="4" fill="white" fill-opacity="0.8"/>
<path d="M17.3203 23V11.625H21.0391C22.2734 11.625 23.2005 11.8802 23.8203 12.3906C24.4453 12.901 24.7578 13.6562 24.7578 14.6562C24.7578 15.1875 24.6068 15.6589 24.3047 16.0703C24.0026 16.4766 23.5911 16.7917 23.0703 17.0156C23.6849 17.1875 24.1693 17.5156 24.5234 18C24.8828 18.4792 25.0625 19.0521 25.0625 19.7188C25.0625 20.7396 24.7318 21.5417 24.0703 22.125C23.4089 22.7083 22.474 23 21.2656 23H17.3203ZM18.8203 17.6797V21.7734H21.2969C21.9948 21.7734 22.5443 21.5938 22.9453 21.2344C23.3516 20.8698 23.5547 20.3698 23.5547 19.7344C23.5547 18.3646 22.8099 17.6797 21.3203 17.6797H18.8203ZM18.8203 16.4766H21.0859C21.7422 16.4766 22.2656 16.3125 22.6562 15.9844C23.0521 15.6562 23.25 15.2109 23.25 14.6484C23.25 14.0234 23.0677 13.5703 22.7031 13.2891C22.3385 13.0026 21.7839 12.8594 21.0391 12.8594H18.8203V16.4766ZM26.6797 18.6953C26.6797 17.8672 26.8411 17.1224 27.1641 16.4609C27.4922 15.7995 27.9453 15.2891 28.5234 14.9297C29.1068 14.5703 29.7708 14.3906 30.5156 14.3906C31.6667 14.3906 32.5964 14.7891 33.3047 15.5859C34.0182 16.3828 34.375 17.4427 34.375 18.7656V18.8672C34.375 19.6901 34.2161 20.4297 33.8984 21.0859C33.5859 21.737 33.1354 22.2448 32.5469 22.6094C31.9635 22.974 31.2917 23.1562 30.5312 23.1562C29.3854 23.1562 28.4557 22.7578 27.7422 21.9609C27.0339 21.1641 26.6797 20.1094 26.6797 18.7969V18.6953ZM28.1328 18.8672C28.1328 19.8047 28.349 20.5573 28.7812 21.125C29.2188 21.6927 29.8021 21.9766 30.5312 21.9766C31.2656 21.9766 31.849 21.6901 32.2812 21.1172C32.7135 20.5391 32.9297 19.7318 32.9297 18.6953C32.9297 17.7682 32.7083 17.0182 32.2656 16.4453C31.8281 15.8672 31.2448 15.5781 30.5156 15.5781C29.8021 15.5781 29.2266 15.862 28.7891 16.4297C28.3516 16.9974 28.1328 17.8099 28.1328 18.8672ZM41.6562 14.5469H43.1016V23H41.6562V16.8359L37.7578 23H36.3125V14.5469H37.7578V20.7188L41.6562 14.5469ZM42.0469 11.4688C42.0469 12.099 41.8307 12.6068 41.3984 12.9922C40.9714 13.3724 40.4089 13.5625 39.7109 13.5625C39.013 13.5625 38.4479 13.3698 38.0156 12.9844C37.5833 12.599 37.3672 12.0938 37.3672 11.4688H38.5469C38.5469 11.8333 38.6458 12.1198 38.8438 12.3281C39.0417 12.5312 39.3307 12.6328 39.7109 12.6328C40.0755 12.6328 40.3594 12.5312 40.5625 12.3281C40.7708 12.125 40.875 11.8385 40.875 11.4688H42.0469ZM52.3281 23H50.8828V19.3906H47V23H45.5469V14.5469H47V18.2109H50.8828V14.5469H52.3281V23ZM59.875 23C59.7917 22.8333 59.724 22.5365 59.6719 22.1094C59 22.8073 58.1979 23.1562 57.2656 23.1562C56.4323 23.1562 55.7474 22.9219 55.2109 22.4531C54.6797 21.9792 54.4141 21.3802 54.4141 20.6562C54.4141 19.776 54.7474 19.0938 55.4141 18.6094C56.0859 18.1198 57.0286 17.875 58.2422 17.875H59.6484V17.2109C59.6484 16.7057 59.4974 16.3047 59.1953 16.0078C58.8932 15.7057 58.4479 15.5547 57.8594 15.5547C57.3438 15.5547 56.9115 15.6849 56.5625 15.9453C56.2135 16.2057 56.0391 16.5208 56.0391 16.8906H54.5859C54.5859 16.4688 54.7344 16.0625 55.0312 15.6719C55.3333 15.276 55.7396 14.9635 56.25 14.7344C56.7656 14.5052 57.3307 14.3906 57.9453 14.3906C58.9193 14.3906 59.6823 14.6354 60.2344 15.125C60.7865 15.6094 61.0729 16.2786 61.0938 17.1328V21.0234C61.0938 21.7995 61.1927 22.4167 61.3906 22.875V23H59.875ZM57.4766 21.8984C57.9297 21.8984 58.3594 21.7812 58.7656 21.5469C59.1719 21.3125 59.4661 21.0078 59.6484 20.6328V18.8984H58.5156C56.7448 18.8984 55.8594 19.4167 55.8594 20.4531C55.8594 20.9062 56.0104 21.2604 56.3125 21.5156C56.6146 21.7708 57.0026 21.8984 57.4766 21.8984ZM72.1953 21.0859L75.0703 14.5469H76.875V23H75.4297V16.8516L72.6953 23H71.6953L68.9062 16.7188V23H67.4609V14.5469H69.3359L72.1953 21.0859ZM84.6719 14.5469H86.1172V23H84.6719V16.8359L80.7734 23H79.3281V14.5469H80.7734V20.7188L84.6719 14.5469ZM95.5781 18.8672C95.5781 20.1536 95.2839 21.1901 94.6953 21.9766C94.1068 22.763 93.3099 23.1562 92.3047 23.1562C91.2786 23.1562 90.4714 22.8307 89.8828 22.1797V26.25H88.4375V14.5469H89.7578L89.8281 15.4844C90.4167 14.7552 91.2344 14.3906 92.2812 14.3906C93.2969 14.3906 94.099 14.7734 94.6875 15.5391C95.2812 16.3047 95.5781 17.3698 95.5781 18.7344V18.8672ZM94.1328 18.7031C94.1328 17.75 93.9297 16.9974 93.5234 16.4453C93.1172 15.8932 92.5599 15.6172 91.8516 15.6172C90.9766 15.6172 90.3203 16.0052 89.8828 16.7812V20.8203C90.3151 21.5911 90.9766 21.9766 91.8672 21.9766C92.5599 21.9766 93.1094 21.7031 93.5156 21.1562C93.9271 20.6042 94.1328 19.7865 94.1328 18.7031ZM97.0391 18.6953C97.0391 17.8672 97.2005 17.1224 97.5234 16.4609C97.8516 15.7995 98.3047 15.2891 98.8828 14.9297C99.4661 14.5703 100.13 14.3906 100.875 14.3906C102.026 14.3906 102.956 14.7891 103.664 15.5859C104.378 16.3828 104.734 17.4427 104.734 18.7656V18.8672C104.734 19.6901 104.576 20.4297 104.258 21.0859C103.945 21.737 103.495 22.2448 102.906 22.6094C102.323 22.974 101.651 23.1562 100.891 23.1562C99.7448 23.1562 98.8151 22.7578 98.1016 21.9609C97.3932 21.1641 97.0391 20.1094 97.0391 18.7969V18.6953ZM98.4922 18.8672C98.4922 19.8047 98.7083 20.5573 99.1406 21.125C99.5781 21.6927 100.161 21.9766 100.891 21.9766C101.625 21.9766 102.208 21.6901 102.641 21.1172C103.073 20.5391 103.289 19.7318 103.289 18.6953C103.289 17.7682 103.068 17.0182 102.625 16.4453C102.188 15.8672 101.604 15.5781 100.875 15.5781C100.161 15.5781 99.5859 15.862 99.1484 16.4297C98.7109 16.9974 98.4922 17.8099 98.4922 18.8672ZM106.68 23V14.5469H109.977C111.102 14.5469 111.964 14.7448 112.562 15.1406C113.167 15.5312 113.469 16.1068 113.469 16.8672C113.469 17.2578 113.352 17.612 113.117 17.9297C112.883 18.2422 112.536 18.4818 112.078 18.6484C112.589 18.7682 112.997 19.0026 113.305 19.3516C113.617 19.7005 113.773 20.1172 113.773 20.6016C113.773 21.3776 113.487 21.9714 112.914 22.3828C112.346 22.7943 111.542 23 110.5 23H106.68ZM108.125 19.2891V21.8359H110.516C111.12 21.8359 111.57 21.724 111.867 21.5C112.169 21.276 112.32 20.9609 112.32 20.5547C112.32 19.7109 111.701 19.2891 110.461 19.2891H108.125ZM108.125 18.1328H109.992C111.346 18.1328 112.023 17.737 112.023 16.9453C112.023 16.1536 111.383 15.7448 110.102 15.7188H108.125V18.1328Z" fill="black" fill-opacity="0.8"/>
</svg>
