<svg width="63" height="13" viewBox="0 0 63 13" fill="none" xmlns="http://www.w3.org/2000/svg">
<path d="M7.375 1.85938H1.89062V12H0.382812V0.625H7.375V1.85938ZM7.14844 7.69531C7.14844 6.86719 7.3099 6.1224 7.63281 5.46094C7.96094 4.79948 8.41406 4.28906 8.99219 3.92969C9.57552 3.57031 10.2396 3.39062 10.9844 3.39062C12.1354 3.39062 13.0651 3.78906 13.7734 4.58594C14.487 5.38281 14.8438 6.44271 14.8438 7.76562V7.86719C14.8438 8.6901 14.6849 9.42969 14.3672 10.0859C14.0547 10.737 13.6042 11.2448 13.0156 11.6094C12.4323 11.974 11.7604 12.1562 11 12.1562C9.85417 12.1562 8.92448 11.7578 8.21094 10.9609C7.5026 10.1641 7.14844 9.10938 7.14844 7.79688V7.69531ZM8.60156 7.86719C8.60156 8.80469 8.81771 9.55729 9.25 10.125C9.6875 10.6927 10.2708 10.9766 11 10.9766C11.7344 10.9766 12.3177 10.6901 12.75 10.1172C13.1823 9.53906 13.3984 8.73177 13.3984 7.69531C13.3984 6.76823 13.1771 6.01823 12.7344 5.44531C12.2969 4.86719 11.7135 4.57812 10.9844 4.57812C10.2708 4.57812 9.69531 4.86198 9.25781 5.42969C8.82031 5.9974 8.60156 6.8099 8.60156 7.86719ZM23.5703 12H22.125V4.74219H18.2344V12H16.7812V3.54688H23.5703V12ZM28.8984 7.75781H25.0859V6.57812H28.8984V7.75781ZM33.7031 10.9766C34.2188 10.9766 34.6693 10.8203 35.0547 10.5078C35.4401 10.1953 35.6536 9.80469 35.6953 9.33594H37.0625C37.0365 9.82031 36.8698 10.2812 36.5625 10.7188C36.2552 11.1562 35.8438 11.5052 35.3281 11.7656C34.8177 12.026 34.276 12.1562 33.7031 12.1562C32.5521 12.1562 31.6354 11.7734 30.9531 11.0078C30.276 10.237 29.9375 9.1849 29.9375 7.85156V7.60938C29.9375 6.78646 30.0885 6.05469 30.3906 5.41406C30.6927 4.77344 31.125 4.27604 31.6875 3.92188C32.2552 3.56771 32.9245 3.39062 33.6953 3.39062C34.6432 3.39062 35.4297 3.67448 36.0547 4.24219C36.6849 4.8099 37.0208 5.54688 37.0625 6.45312H35.6953C35.6536 5.90625 35.4453 5.45833 35.0703 5.10938C34.7005 4.75521 34.2422 4.57812 33.6953 4.57812C32.9609 4.57812 32.3906 4.84375 31.9844 5.375C31.5833 5.90104 31.3828 6.66406 31.3828 7.66406V7.9375C31.3828 8.91146 31.5833 9.66146 31.9844 10.1875C32.3854 10.7135 32.9583 10.9766 33.7031 10.9766ZM44.9688 4.71875H42.1328V12H40.6875V4.71875H37.9062V3.54688H44.9688V4.71875ZM45.6641 7.69531C45.6641 6.86719 45.8255 6.1224 46.1484 5.46094C46.4766 4.79948 46.9297 4.28906 47.5078 3.92969C48.0911 3.57031 48.7552 3.39062 49.5 3.39062C50.651 3.39062 51.5807 3.78906 52.2891 4.58594C53.0026 5.38281 53.3594 6.44271 53.3594 7.76562V7.86719C53.3594 8.6901 53.2005 9.42969 52.8828 10.0859C52.5703 10.737 52.1198 11.2448 51.5312 11.6094C50.9479 11.974 50.276 12.1562 49.5156 12.1562C48.3698 12.1562 47.4401 11.7578 46.7266 10.9609C46.0182 10.1641 45.6641 9.10938 45.6641 7.79688V7.69531ZM47.1172 7.86719C47.1172 8.80469 47.3333 9.55729 47.7656 10.125C48.2031 10.6927 48.7865 10.9766 49.5156 10.9766C50.25 10.9766 50.8333 10.6901 51.2656 10.1172C51.6979 9.53906 51.9141 8.73177 51.9141 7.69531C51.9141 6.76823 51.6927 6.01823 51.25 5.44531C50.8125 4.86719 50.2292 4.57812 49.5 4.57812C48.7865 4.57812 48.2109 4.86198 47.7734 5.42969C47.3359 5.9974 47.1172 6.8099 47.1172 7.86719ZM62.0859 12H60.6406V4.74219H56.75V12H55.2969V3.54688H62.0859V12Z" fill="black" fill-opacity="0.8"/>
</svg>
