<svg width="229" height="36" viewBox="0 0 229 36" fill="none" xmlns="http://www.w3.org/2000/svg">
<rect width="229" height="36" rx="4" fill="white" fill-opacity="0.8"/>
<path d="M27.5547 25.7891H26.0625V23H17.8984V25.7969H16.3984L16.3906 21.7734H17.3203C17.8099 21.2214 18.1979 20.4818 18.4844 19.5547C18.776 18.6224 18.9583 17.6016 19.0312 16.4922L19.2812 11.625H26.0859V21.7734H27.5703L27.5547 25.7891ZM19.0312 21.7734H24.5781V12.8594H20.7266L20.5625 16.2031C20.4948 17.5104 20.3203 18.625 20.0391 19.5469C19.763 20.4688 19.4271 21.2109 19.0312 21.7734ZM34.5938 14.5469H36.0391V23H34.5938V16.8359L30.6953 23H29.25V14.5469H30.6953V20.7188L34.5938 14.5469ZM40.9922 19.3984H39.9375V23H38.4844V14.5469H39.9375V18.125H40.8828L43.7266 14.5469H45.4766L42.1328 18.6094L45.7578 23H43.9219L40.9922 19.3984ZM52.4688 14.5469H53.9141V23H52.4688V16.8359L48.5703 23H47.125V14.5469H48.5703V20.7188L52.4688 14.5469ZM61.7031 14.5469H63.1484V23H61.7031V16.8359L57.8047 23H56.3594V14.5469H57.8047V20.7188L61.7031 14.5469ZM62.0938 11.4688C62.0938 12.099 61.8776 12.6068 61.4453 12.9922C61.0182 13.3724 60.4557 13.5625 59.7578 13.5625C59.0599 13.5625 58.4948 13.3698 58.0625 12.9844C57.6302 12.599 57.4141 12.0938 57.4141 11.4688H58.5938C58.5938 11.8333 58.6927 12.1198 58.8906 12.3281C59.0885 12.5312 59.3776 12.6328 59.7578 12.6328C60.1224 12.6328 60.4062 12.5312 60.6094 12.3281C60.8177 12.125 60.9219 11.8385 60.9219 11.4688H62.0938ZM69.3672 21.8203L69.8672 21.2031C70.4297 20.474 70.75 19.3802 70.8281 17.9219L70.9609 14.5469H76.4062V21.8203H77.4922V25.4844H76.0469V23H70.1484V25.4844H68.7031L68.7109 21.8203H69.3672ZM71.0781 21.8203H74.9609V15.8828H72.3594L72.2734 17.8984C72.1849 19.5807 71.7865 20.888 71.0781 21.8203ZM84.5625 14.5469H86.0078V23H84.5625V16.8359L80.6641 23H79.2188V14.5469H80.6641V20.7188L84.5625 14.5469ZM90.9609 19.3984H89.9062V23H88.4531V14.5469H89.9062V18.125H90.8516L93.6953 14.5469H95.4453L92.1016 18.6094L95.7266 23H93.8906L90.9609 19.3984ZM102.438 14.5469H103.883V23H102.438V16.8359L98.5391 23H97.0938V14.5469H98.5391V20.7188L102.438 14.5469ZM111.672 14.5469H113.117V23H111.672V16.8359L107.773 23H106.328V14.5469H107.773V20.7188L111.672 14.5469ZM112.062 11.4688C112.062 12.099 111.846 12.6068 111.414 12.9922C110.987 13.3724 110.424 13.5625 109.727 13.5625C109.029 13.5625 108.464 13.3698 108.031 12.9844C107.599 12.599 107.383 12.0938 107.383 11.4688H108.562C108.562 11.8333 108.661 12.1198 108.859 12.3281C109.057 12.5312 109.346 12.6328 109.727 12.6328C110.091 12.6328 110.375 12.5312 110.578 12.3281C110.786 12.125 110.891 11.8385 110.891 11.4688H112.062ZM119.336 21.8203L119.836 21.2031C120.398 20.474 120.719 19.3802 120.797 17.9219L120.93 14.5469H126.375V21.8203H127.461V25.4844H126.016V23H120.117V25.4844H118.672L118.68 21.8203H119.336ZM121.047 21.8203H124.93V15.8828H122.328L122.242 17.8984C122.154 19.5807 121.755 20.888 121.047 21.8203ZM134.531 14.5469H135.977V23H134.531V16.8359L130.633 23H129.188V14.5469H130.633V20.7188L134.531 14.5469ZM140.93 19.3984H139.875V23H138.422V14.5469H139.875V18.125H140.82L143.664 14.5469H145.414L142.07 18.6094L145.695 23H143.859L140.93 19.3984ZM152.406 14.5469H153.852V23H152.406V16.8359L148.508 23H147.062V14.5469H148.508V20.7188L152.406 14.5469ZM161.641 14.5469H163.086V23H161.641V16.8359L157.742 23H156.297V14.5469H157.742V20.7188L161.641 14.5469ZM162.031 11.4688C162.031 12.099 161.815 12.6068 161.383 12.9922C160.956 13.3724 160.393 13.5625 159.695 13.5625C158.997 13.5625 158.432 13.3698 158 12.9844C157.568 12.599 157.352 12.0938 157.352 11.4688H158.531C158.531 11.8333 158.63 12.1198 158.828 12.3281C159.026 12.5312 159.315 12.6328 159.695 12.6328C160.06 12.6328 160.344 12.5312 160.547 12.3281C160.755 12.125 160.859 11.8385 160.859 11.4688H162.031ZM174.023 16.8594C174.023 16.4635 173.872 16.151 173.57 15.9219C173.268 15.6875 172.854 15.5703 172.328 15.5703C171.818 15.5703 171.391 15.7031 171.047 15.9688C170.708 16.2344 170.539 16.5469 170.539 16.9062H169.102C169.102 16.1719 169.409 15.5703 170.023 15.1016C170.638 14.6328 171.406 14.3984 172.328 14.3984C173.318 14.3984 174.089 14.612 174.641 15.0391C175.193 15.4609 175.469 16.0651 175.469 16.8516C175.469 17.2318 175.354 17.5807 175.125 17.8984C174.896 18.2161 174.57 18.4688 174.148 18.6562C175.133 18.9896 175.625 19.6458 175.625 20.625C175.625 21.401 175.326 22.0156 174.727 22.4688C174.128 22.9219 173.328 23.1484 172.328 23.1484C171.354 23.1484 170.549 22.9115 169.914 22.4375C169.284 21.9583 168.969 21.3125 168.969 20.5H170.406C170.406 20.9115 170.589 21.2656 170.953 21.5625C171.323 21.8542 171.781 22 172.328 22C172.88 22 173.326 21.8724 173.664 21.6172C174.003 21.362 174.172 21.0312 174.172 20.625C174.172 20.151 174.029 19.8125 173.742 19.6094C173.461 19.401 173.021 19.2969 172.422 19.2969H170.977V18.0781H172.547C173.531 18.0521 174.023 17.6458 174.023 16.8594ZM182.719 23C182.635 22.8333 182.568 22.5365 182.516 22.1094C181.844 22.8073 181.042 23.1562 180.109 23.1562C179.276 23.1562 178.591 22.9219 178.055 22.4531C177.523 21.9792 177.258 21.3802 177.258 20.6562C177.258 19.776 177.591 19.0938 178.258 18.6094C178.93 18.1198 179.872 17.875 181.086 17.875H182.492V17.2109C182.492 16.7057 182.341 16.3047 182.039 16.0078C181.737 15.7057 181.292 15.5547 180.703 15.5547C180.188 15.5547 179.755 15.6849 179.406 15.9453C179.057 16.2057 178.883 16.5208 178.883 16.8906H177.43C177.43 16.4688 177.578 16.0625 177.875 15.6719C178.177 15.276 178.583 14.9635 179.094 14.7344C179.609 14.5052 180.174 14.3906 180.789 14.3906C181.763 14.3906 182.526 14.6354 183.078 15.125C183.63 15.6094 183.917 16.2786 183.938 17.1328V21.0234C183.938 21.7995 184.036 22.4167 184.234 22.875V23H182.719ZM180.32 21.8984C180.773 21.8984 181.203 21.7812 181.609 21.5469C182.016 21.3125 182.31 21.0078 182.492 20.6328V18.8984H181.359C179.589 18.8984 178.703 19.4167 178.703 20.4531C178.703 20.9062 178.854 21.2604 179.156 21.5156C179.458 21.7708 179.846 21.8984 180.32 21.8984ZM193.117 23H191.672V15.7422H187.781V23H186.328V14.5469H193.117V23ZM200.656 23C200.573 22.8333 200.505 22.5365 200.453 22.1094C199.781 22.8073 198.979 23.1562 198.047 23.1562C197.214 23.1562 196.529 22.9219 195.992 22.4531C195.461 21.9792 195.195 21.3802 195.195 20.6562C195.195 19.776 195.529 19.0938 196.195 18.6094C196.867 18.1198 197.81 17.875 199.023 17.875H200.43V17.2109C200.43 16.7057 200.279 16.3047 199.977 16.0078C199.674 15.7057 199.229 15.5547 198.641 15.5547C198.125 15.5547 197.693 15.6849 197.344 15.9453C196.995 16.2057 196.82 16.5208 196.82 16.8906H195.367C195.367 16.4688 195.516 16.0625 195.812 15.6719C196.115 15.276 196.521 14.9635 197.031 14.7344C197.547 14.5052 198.112 14.3906 198.727 14.3906C199.701 14.3906 200.464 14.6354 201.016 15.125C201.568 15.6094 201.854 16.2786 201.875 17.1328V21.0234C201.875 21.7995 201.974 22.4167 202.172 22.875V23H200.656ZM198.258 21.8984C198.711 21.8984 199.141 21.7812 199.547 21.5469C199.953 21.3125 200.247 21.0078 200.43 20.6328V18.8984H199.297C197.526 18.8984 196.641 19.4167 196.641 20.4531C196.641 20.9062 196.792 21.2604 197.094 21.5156C197.396 21.7708 197.784 21.8984 198.258 21.8984ZM204.07 21.8203L204.57 21.2031C205.133 20.474 205.453 19.3802 205.531 17.9219L205.664 14.5469H211.109V21.8203H212.195V25.4844H210.75V23H204.852V25.4844H203.406L203.414 21.8203H204.07ZM205.781 21.8203H209.664V15.8828H207.062L206.977 17.8984C206.888 19.5807 206.49 20.888 205.781 21.8203Z" fill="black" fill-opacity="0.8"/>
</svg>
