<svg width="165" height="16" viewBox="0 0 165 16" fill="none" xmlns="http://www.w3.org/2000/svg">
<path d="M3.27344 6.89062H1.89062V12H0.390625V0.625H1.89062V5.64062H3.0625L7.03906 0.625H8.90625L4.5625 6.14062L9.22656 12H7.39062L3.27344 6.89062ZM15.5938 12C15.5104 11.8333 15.4427 11.5365 15.3906 11.1094C14.7188 11.8073 13.9167 12.1562 12.9844 12.1562C12.151 12.1562 11.4661 11.9219 10.9297 11.4531C10.3984 10.9792 10.1328 10.3802 10.1328 9.65625C10.1328 8.77604 10.4661 8.09375 11.1328 7.60938C11.8047 7.11979 12.7474 6.875 13.9609 6.875H15.3672V6.21094C15.3672 5.70573 15.2161 5.30469 14.9141 5.00781C14.612 4.70573 14.1667 4.55469 13.5781 4.55469C13.0625 4.55469 12.6302 4.6849 12.2812 4.94531C11.9323 5.20573 11.7578 5.52083 11.7578 5.89062H10.3047C10.3047 5.46875 10.4531 5.0625 10.75 4.67188C11.0521 4.27604 11.4583 3.96354 11.9688 3.73438C12.4844 3.50521 13.0495 3.39062 13.6641 3.39062C14.638 3.39062 15.401 3.63542 15.9531 4.125C16.5052 4.60938 16.7917 5.27865 16.8125 6.13281V10.0234C16.8125 10.7995 16.9115 11.4167 17.1094 11.875V12H15.5938ZM13.1953 10.8984C13.6484 10.8984 14.0781 10.7812 14.4844 10.5469C14.8906 10.3125 15.1849 10.0078 15.3672 9.63281V7.89844H14.2344C12.4635 7.89844 11.5781 8.41667 11.5781 9.45312C11.5781 9.90625 11.7292 10.2604 12.0312 10.5156C12.3333 10.7708 12.7214 10.8984 13.1953 10.8984ZM21.7109 8.39844H20.6562V12H19.2031V3.54688H20.6562V7.125H21.6016L24.4453 3.54688H26.1953L22.8516 7.60938L26.4766 12H24.6406L21.7109 8.39844ZM38.1484 3.54688V12H36.6953V8.71094H34.5156L32.5234 12H30.9609L33.0859 8.49219C32.5443 8.29427 32.1276 7.98958 31.8359 7.57812C31.5495 7.16146 31.4062 6.67708 31.4062 6.125C31.4062 5.35417 31.6953 4.73438 32.2734 4.26562C32.8516 3.79167 33.625 3.55208 34.5938 3.54688H38.1484ZM32.8594 6.14062C32.8594 6.55208 33 6.88542 33.2812 7.14062C33.5625 7.39062 33.9349 7.51823 34.3984 7.52344H36.6953V4.71875H34.6172C34.0807 4.71875 33.6536 4.85156 33.3359 5.11719C33.0182 5.3776 32.8594 5.71875 32.8594 6.14062ZM44.5703 12V3.54688H47.8672C48.9922 3.54688 49.8542 3.74479 50.4531 4.14062C51.0573 4.53125 51.3594 5.10677 51.3594 5.86719C51.3594 6.25781 51.2422 6.61198 51.0078 6.92969C50.7734 7.24219 50.4271 7.48177 49.9688 7.64844C50.4792 7.76823 50.888 8.0026 51.1953 8.35156C51.5078 8.70052 51.6641 9.11719 51.6641 9.60156C51.6641 10.3776 51.3776 10.9714 50.8047 11.3828C50.237 11.7943 49.4323 12 48.3906 12H44.5703ZM46.0156 8.28906V10.8359H48.4062C49.0104 10.8359 49.4609 10.724 49.7578 10.5C50.0599 10.276 50.2109 9.96094 50.2109 9.55469C50.2109 8.71094 49.5911 8.28906 48.3516 8.28906H46.0156ZM46.0156 7.13281H47.8828C49.237 7.13281 49.9141 6.73698 49.9141 5.94531C49.9141 5.15365 49.2734 4.74479 47.9922 4.71875H46.0156V7.13281ZM56.9688 10.9766C57.4844 10.9766 57.9349 10.8203 58.3203 10.5078C58.7057 10.1953 58.9193 9.80469 58.9609 9.33594H60.3281C60.3021 9.82031 60.1354 10.2812 59.8281 10.7188C59.5208 11.1562 59.1094 11.5052 58.5938 11.7656C58.0833 12.026 57.5417 12.1562 56.9688 12.1562C55.8177 12.1562 54.901 11.7734 54.2188 11.0078C53.5417 10.237 53.2031 9.1849 53.2031 7.85156V7.60938C53.2031 6.78646 53.3542 6.05469 53.6562 5.41406C53.9583 4.77344 54.3906 4.27604 54.9531 3.92188C55.5208 3.56771 56.1901 3.39062 56.9609 3.39062C57.9089 3.39062 58.6953 3.67448 59.3203 4.24219C59.9505 4.8099 60.2865 5.54688 60.3281 6.45312H58.9609C58.9193 5.90625 58.7109 5.45833 58.3359 5.10938C57.9661 4.75521 57.5078 4.57812 56.9609 4.57812C56.2266 4.57812 55.6562 4.84375 55.25 5.375C54.849 5.90104 54.6484 6.66406 54.6484 7.66406V7.9375C54.6484 8.91146 54.849 9.66146 55.25 10.1875C55.651 10.7135 56.224 10.9766 56.9688 10.9766ZM68.2344 4.71875H65.3984V12H63.9531V4.71875H61.1719V3.54688H68.2344V4.71875ZM76.7812 7.86719C76.7812 9.15365 76.487 10.1901 75.8984 10.9766C75.3099 11.763 74.513 12.1562 73.5078 12.1562C72.4818 12.1562 71.6745 11.8307 71.0859 11.1797V15.25H69.6406V3.54688H70.9609L71.0312 4.48438C71.6198 3.75521 72.4375 3.39062 73.4844 3.39062C74.5 3.39062 75.3021 3.77344 75.8906 4.53906C76.4844 5.30469 76.7812 6.36979 76.7812 7.73438V7.86719ZM75.3359 7.70312C75.3359 6.75 75.1328 5.9974 74.7266 5.44531C74.3203 4.89323 73.763 4.61719 73.0547 4.61719C72.1797 4.61719 71.5234 5.00521 71.0859 5.78125V9.82031C71.5182 10.5911 72.1797 10.9766 73.0703 10.9766C73.763 10.9766 74.3125 10.7031 74.7188 10.1562C75.1302 9.60417 75.3359 8.78646 75.3359 7.70312ZM82.1328 12.1562C80.987 12.1562 80.0547 11.7812 79.3359 11.0312C78.6172 10.276 78.2578 9.26823 78.2578 8.00781V7.74219C78.2578 6.90365 78.4167 6.15625 78.7344 5.5C79.0573 4.83854 79.5052 4.32292 80.0781 3.95312C80.6562 3.57812 81.2812 3.39062 81.9531 3.39062C83.0521 3.39062 83.9062 3.7526 84.5156 4.47656C85.125 5.20052 85.4297 6.23698 85.4297 7.58594V8.1875H79.7031C79.724 9.02083 79.9661 9.69531 80.4297 10.2109C80.8984 10.7214 81.4922 10.9766 82.2109 10.9766C82.7214 10.9766 83.1536 10.8724 83.5078 10.6641C83.862 10.4557 84.1719 10.1797 84.4375 9.83594L85.3203 10.5234C84.612 11.612 83.5495 12.1562 82.1328 12.1562ZM81.9531 4.57812C81.3698 4.57812 80.8802 4.79167 80.4844 5.21875C80.0885 5.64062 79.8438 6.23438 79.75 7H83.9844V6.89062C83.9427 6.15625 83.7448 5.58854 83.3906 5.1875C83.0365 4.78125 82.5573 4.57812 81.9531 4.57812ZM93.2969 4.71875H90.4609V12H89.0156V4.71875H86.2344V3.54688H93.2969V4.71875ZM100.172 3.54688H101.617V12H100.172V5.83594L96.2734 12H94.8281V3.54688H96.2734V9.71875L100.172 3.54688ZM110.867 3.54688V12H109.414V4.74219H106.539L106.367 7.90625C106.273 9.35938 106.029 10.3984 105.633 11.0234C105.242 11.6484 104.62 11.974 103.766 12H103.188V10.7266L103.602 10.6953C104.07 10.6432 104.406 10.3724 104.609 9.88281C104.812 9.39323 104.943 8.48698 105 7.16406L105.156 3.54688H110.867ZM122.023 10.0859L124.898 3.54688H126.703V12H125.258V5.85156L122.523 12H121.523L118.734 5.71875V12H117.289V3.54688H119.164L122.023 10.0859ZM134.25 12C134.167 11.8333 134.099 11.5365 134.047 11.1094C133.375 11.8073 132.573 12.1562 131.641 12.1562C130.807 12.1562 130.122 11.9219 129.586 11.4531C129.055 10.9792 128.789 10.3802 128.789 9.65625C128.789 8.77604 129.122 8.09375 129.789 7.60938C130.461 7.11979 131.404 6.875 132.617 6.875H134.023V6.21094C134.023 5.70573 133.872 5.30469 133.57 5.00781C133.268 4.70573 132.823 4.55469 132.234 4.55469C131.719 4.55469 131.286 4.6849 130.938 4.94531C130.589 5.20573 130.414 5.52083 130.414 5.89062H128.961C128.961 5.46875 129.109 5.0625 129.406 4.67188C129.708 4.27604 130.115 3.96354 130.625 3.73438C131.141 3.50521 131.706 3.39062 132.32 3.39062C133.294 3.39062 134.057 3.63542 134.609 4.125C135.161 4.60938 135.448 5.27865 135.469 6.13281V10.0234C135.469 10.7995 135.568 11.4167 135.766 11.875V12H134.25ZM131.852 10.8984C132.305 10.8984 132.734 10.7812 133.141 10.5469C133.547 10.3125 133.841 10.0078 134.023 9.63281V7.89844H132.891C131.12 7.89844 130.234 8.41667 130.234 9.45312C130.234 9.90625 130.385 10.2604 130.688 10.5156C130.99 10.7708 131.378 10.8984 131.852 10.8984ZM142.602 10.0859L145.477 3.54688H147.281V12H145.836V5.85156L143.102 12H142.102L139.312 5.71875V12H137.867V3.54688H139.742L142.602 10.0859ZM152.242 8.39844H151.188V12H149.734V3.54688H151.188V7.125H152.133L154.977 3.54688H156.727L153.383 7.60938L157.008 12H155.172L152.242 8.39844ZM161.016 9.88281L162.984 3.54688H164.531L161.133 13.3047C160.607 14.7109 159.771 15.4141 158.625 15.4141L158.352 15.3906L157.812 15.2891V14.1172L158.203 14.1484C158.693 14.1484 159.073 14.0495 159.344 13.8516C159.62 13.6536 159.846 13.2917 160.023 12.7656L160.344 11.9062L157.328 3.54688H158.906L161.016 9.88281Z" fill="black" fill-opacity="0.8"/>
</svg>
