<svg width="417" height="23" viewBox="0 0 417 23" fill="none" xmlns="http://www.w3.org/2000/svg">
<path d="M12.7539 18H11.3125V2.16797H1.65625V18H0.214844V0.9375H12.7539V18ZM16.0469 11.4727C16.0469 10.2539 16.2812 9.15625 16.75 8.17969C17.2266 7.20312 17.8945 6.44531 18.7539 5.90625C19.6211 5.35938 20.6016 5.08594 21.6953 5.08594C23.3828 5.08594 24.75 5.67969 25.7969 6.86719C26.8438 8.04688 27.3672 9.61328 27.3672 11.5664V11.8594C27.3672 13.0859 27.1289 14.1914 26.6523 15.1758C26.1836 16.1523 25.5195 16.9062 24.6602 17.4375C23.8008 17.9688 22.8203 18.2344 21.7188 18.2344C20.0391 18.2344 18.6719 17.6445 17.6172 16.4648C16.5703 15.2773 16.0469 13.707 16.0469 11.7539V11.4727ZM17.4531 11.8594C17.4531 13.375 17.8438 14.6211 18.625 15.5977C19.4141 16.5664 20.4453 17.0508 21.7188 17.0508C22.9844 17.0508 24.0078 16.5664 24.7891 15.5977C25.5781 14.6211 25.9727 13.3359 25.9727 11.7422V11.4727C25.9727 10.5039 25.793 9.61719 25.4336 8.8125C25.0742 8.00781 24.5703 7.38672 23.9219 6.94922C23.2734 6.50391 22.5312 6.28125 21.6953 6.28125C20.4453 6.28125 19.4258 6.77344 18.6367 7.75781C17.8477 8.73438 17.4531 10.0156 17.4531 11.6016V11.8594ZM38.6055 5.32031H40.0117V18H38.6055V7.58203L31.7617 18H30.3672V5.32031H31.7617V15.75L38.6055 5.32031ZM48.4609 17.0508C49.4375 17.0508 50.2539 16.7773 50.9102 16.2305C51.5742 15.6758 51.9336 14.9609 51.9883 14.0859H53.3359C53.2969 14.8594 53.0547 15.5664 52.6094 16.207C52.1641 16.8398 51.5703 17.3359 50.8281 17.6953C50.0938 18.0547 49.3047 18.2344 48.4609 18.2344C46.7969 18.2344 45.4766 17.6562 44.5 16.5C43.5312 15.3438 43.0469 13.7891 43.0469 11.8359V11.4141C43.0469 10.1641 43.2656 9.05859 43.7031 8.09766C44.1406 7.13672 44.7656 6.39453 45.5781 5.87109C46.3984 5.34766 47.3555 5.08594 48.4492 5.08594C49.8398 5.08594 50.9844 5.5 51.8828 6.32812C52.7891 7.15625 53.2734 8.24609 53.3359 9.59766H51.9883C51.9258 8.60547 51.5664 7.80469 50.9102 7.19531C50.2617 6.58594 49.4414 6.28125 48.4492 6.28125C47.1836 6.28125 46.1992 6.73828 45.4961 7.65234C44.8008 8.56641 44.4531 9.84766 44.4531 11.4961V11.9062C44.4531 13.5234 44.8008 14.7852 45.4961 15.6914C46.1992 16.5977 47.1875 17.0508 48.4609 17.0508ZM59.5938 12.1875H57.6484V18H56.2305V5.32031H57.6484V10.9453H59.5703L64.2227 5.32031H65.9922L60.7891 11.4727L66.5664 18H64.7148L59.5938 12.1875ZM73.9023 11.7656C73.9023 9.70312 74.3047 8.07422 75.1094 6.87891C75.9219 5.68359 77.043 5.08594 78.4727 5.08594C79.293 5.08594 79.9883 5.26953 80.5586 5.63672V0H81.9531V5.68359C82.5312 5.28516 83.25 5.08594 84.1094 5.08594C85.4609 5.08594 86.543 5.62891 87.3555 6.71484C88.168 7.80078 88.6094 9.3125 88.6797 11.25L88.6914 12.0117C88.6914 13.9414 88.2852 15.4648 87.4727 16.582C86.6602 17.6914 85.5469 18.2461 84.1328 18.2461C83.2891 18.2461 82.5625 18.0625 81.9531 17.6953V22.875H80.5586V17.707C79.957 18.0664 79.2539 18.2461 78.4492 18.2461C77.1133 18.2461 76.043 17.7422 75.2383 16.7344C74.4336 15.7188 73.9922 14.3164 73.9141 12.5273L73.9023 11.7656ZM87.2969 11.7656C87.2969 10.0625 86.9883 8.72266 86.3711 7.74609C85.7617 6.76953 84.9062 6.28125 83.8047 6.28125C83.0078 6.28125 82.3906 6.45312 81.9531 6.79688V16.6055C82.4453 16.9102 83.0703 17.0625 83.8281 17.0625C84.9219 17.0625 85.7734 16.625 86.3828 15.75C86.9922 14.8672 87.2969 13.5391 87.2969 11.7656ZM75.3086 12.0117C75.3086 13.6055 75.6016 14.8477 76.1875 15.7383C76.7734 16.6211 77.6172 17.0625 78.7188 17.0625C79.4531 17.0625 80.0664 16.9023 80.5586 16.582V6.76172C80.1055 6.44141 79.5 6.28125 78.7422 6.28125C77.6484 6.28125 76.8008 6.76953 76.1992 7.74609C75.6055 8.71484 75.3086 10.1367 75.3086 12.0117ZM100.152 5.32031H101.559V18H100.152V7.58203L93.3086 18H91.9141V5.32031H93.3086V15.75L100.152 5.32031ZM115.07 5.32031V18H113.664V6.52734H108.473L108.25 11.2734C108.156 13.0312 107.98 14.375 107.723 15.3047C107.465 16.2266 107.082 16.9062 106.574 17.3438C106.066 17.7812 105.391 18 104.547 18H104.008V16.7578L104.441 16.7344C105.246 16.7188 105.824 16.3281 106.176 15.5625C106.527 14.7969 106.758 13.4297 106.867 11.4609L107.125 5.32031H115.07ZM120.391 9.92578H124.047C124.984 9.92578 125.805 10.0977 126.508 10.4414C127.219 10.7773 127.754 11.2461 128.113 11.8477C128.48 12.4492 128.664 13.1484 128.664 13.9453C128.664 15.1719 128.242 16.1562 127.398 16.8984C126.562 17.6328 125.43 18 124 18H118.996V5.32031H120.391V9.92578ZM120.391 11.1211V16.8164H124.023C125.031 16.8164 125.82 16.5625 126.391 16.0547C126.969 15.5469 127.258 14.8516 127.258 13.9688C127.258 13.125 126.977 12.4453 126.414 11.9297C125.859 11.4062 125.098 11.1367 124.129 11.1211H120.391ZM138.707 16.1016L143.746 5.32031H145.48V18H144.074V7.59375L139.199 18H138.203L133.234 7.35938V18H131.84V5.32031H133.68L138.707 16.1016ZM148.469 11.4727C148.469 10.2539 148.703 9.15625 149.172 8.17969C149.648 7.20312 150.316 6.44531 151.176 5.90625C152.043 5.35938 153.023 5.08594 154.117 5.08594C155.805 5.08594 157.172 5.67969 158.219 6.86719C159.266 8.04688 159.789 9.61328 159.789 11.5664V11.8594C159.789 13.0859 159.551 14.1914 159.074 15.1758C158.605 16.1523 157.941 16.9062 157.082 17.4375C156.223 17.9688 155.242 18.2344 154.141 18.2344C152.461 18.2344 151.094 17.6445 150.039 16.4648C148.992 15.2773 148.469 13.707 148.469 11.7539V11.4727ZM149.875 11.8594C149.875 13.375 150.266 14.6211 151.047 15.5977C151.836 16.5664 152.867 17.0508 154.141 17.0508C155.406 17.0508 156.43 16.5664 157.211 15.5977C158 14.6211 158.395 13.3359 158.395 11.7422V11.4727C158.395 10.5039 158.215 9.61719 157.855 8.8125C157.496 8.00781 156.992 7.38672 156.344 6.94922C155.695 6.50391 154.953 6.28125 154.117 6.28125C152.867 6.28125 151.848 6.77344 151.059 7.75781C150.27 8.73438 149.875 10.0156 149.875 11.6016V11.8594ZM162.848 18V5.32031H167.5C169.109 5.32031 170.344 5.60938 171.203 6.1875C172.062 6.75781 172.492 7.59766 172.492 8.70703C172.492 9.33984 172.301 9.90625 171.918 10.4062C171.535 10.8984 170.977 11.2578 170.242 11.4844C171.07 11.6406 171.734 11.9961 172.234 12.5508C172.742 13.1055 172.996 13.75 172.996 14.4844C172.996 15.6016 172.582 16.4688 171.754 17.0859C170.934 17.6953 169.77 18 168.262 18H162.848ZM164.242 12.1641V16.8281H168.309C169.363 16.8281 170.176 16.625 170.746 16.2188C171.316 15.8125 171.602 15.2266 171.602 14.4609C171.602 13.7578 171.316 13.1992 170.746 12.7852C170.176 12.3711 169.363 12.1641 168.309 12.1641H164.242ZM164.242 10.9922H167.793C169.996 10.9609 171.098 10.2109 171.098 8.74219C171.098 7.96875 170.793 7.40625 170.184 7.05469C169.582 6.69531 168.688 6.51562 167.5 6.51562H164.242V10.9922ZM191.699 18H190.293V6.52734H183.461V18H182.055V5.32031H191.699V18ZM194.688 11.4727C194.688 10.2539 194.922 9.15625 195.391 8.17969C195.867 7.20312 196.535 6.44531 197.395 5.90625C198.262 5.35938 199.242 5.08594 200.336 5.08594C202.023 5.08594 203.391 5.67969 204.438 6.86719C205.484 8.04688 206.008 9.61328 206.008 11.5664V11.8594C206.008 13.0859 205.77 14.1914 205.293 15.1758C204.824 16.1523 204.16 16.9062 203.301 17.4375C202.441 17.9688 201.461 18.2344 200.359 18.2344C198.68 18.2344 197.312 17.6445 196.258 16.4648C195.211 15.2773 194.688 13.707 194.688 11.7539V11.4727ZM196.094 11.8594C196.094 13.375 196.484 14.6211 197.266 15.5977C198.055 16.5664 199.086 17.0508 200.359 17.0508C201.625 17.0508 202.648 16.5664 203.43 15.5977C204.219 14.6211 204.613 13.3359 204.613 11.7422V11.4727C204.613 10.5039 204.434 9.61719 204.074 8.8125C203.715 8.00781 203.211 7.38672 202.562 6.94922C201.914 6.50391 201.172 6.28125 200.336 6.28125C199.086 6.28125 198.066 6.77344 197.277 7.75781C196.488 8.73438 196.094 10.0156 196.094 11.6016V11.8594ZM224.441 12.1406H222.754V18H221.348V12.1406H219.672L214.984 18H213.203L218.453 11.4961L213.789 5.32031H215.488L219.648 10.8867H221.348V5.32031H222.754V10.8867H224.465L228.625 5.32031H230.348L225.66 11.4961L230.922 18H229.129L224.441 12.1406ZM241.176 18C241.035 17.6016 240.945 17.0117 240.906 16.2305C240.414 16.8711 239.785 17.3672 239.02 17.7188C238.262 18.0625 237.457 18.2344 236.605 18.2344C235.387 18.2344 234.398 17.8945 233.641 17.2148C232.891 16.5352 232.516 15.6758 232.516 14.6367C232.516 13.4023 233.027 12.4258 234.051 11.707C235.082 10.9883 236.516 10.6289 238.352 10.6289H240.895V9.1875C240.895 8.28125 240.613 7.57031 240.051 7.05469C239.496 6.53125 238.684 6.26953 237.613 6.26953C236.637 6.26953 235.828 6.51953 235.188 7.01953C234.547 7.51953 234.227 8.12109 234.227 8.82422L232.82 8.8125C232.82 7.80469 233.289 6.93359 234.227 6.19922C235.164 5.45703 236.316 5.08594 237.684 5.08594C239.098 5.08594 240.211 5.44141 241.023 6.15234C241.844 6.85547 242.266 7.83984 242.289 9.10547V15.1055C242.289 16.332 242.418 17.25 242.676 17.8594V18H241.176ZM236.77 16.9922C237.707 16.9922 238.543 16.7656 239.277 16.3125C240.02 15.8594 240.559 15.2539 240.895 14.4961V11.707H238.387C236.988 11.7227 235.895 11.9805 235.105 12.4805C234.316 12.9727 233.922 13.6523 233.922 14.5195C233.922 15.2305 234.184 15.8203 234.707 16.2891C235.238 16.7578 235.926 16.9922 236.77 16.9922ZM255.777 18H254.371V12.1875H247.539V18H246.133V5.32031H247.539V11.0039H254.371V5.32031H255.777V18ZM269.734 11.7891C269.734 13.7656 269.297 15.3359 268.422 16.5C267.547 17.6562 266.375 18.2344 264.906 18.2344C263.172 18.2344 261.844 17.625 260.922 16.4062V22.875H259.527V5.32031H260.828L260.898 7.11328C261.812 5.76172 263.137 5.08594 264.871 5.08594C266.387 5.08594 267.574 5.66016 268.434 6.80859C269.301 7.95703 269.734 9.55078 269.734 11.5898V11.7891ZM268.328 11.543C268.328 9.92578 267.996 8.64844 267.332 7.71094C266.668 6.77344 265.742 6.30469 264.555 6.30469C263.695 6.30469 262.957 6.51172 262.34 6.92578C261.723 7.33984 261.25 7.94141 260.922 8.73047V14.8125C261.258 15.5391 261.738 16.0938 262.363 16.4766C262.988 16.8594 263.727 17.0508 264.578 17.0508C265.758 17.0508 266.676 16.582 267.332 15.6445C267.996 14.6992 268.328 13.332 268.328 11.543ZM280.855 18C280.715 17.6016 280.625 17.0117 280.586 16.2305C280.094 16.8711 279.465 17.3672 278.699 17.7188C277.941 18.0625 277.137 18.2344 276.285 18.2344C275.066 18.2344 274.078 17.8945 273.32 17.2148C272.57 16.5352 272.195 15.6758 272.195 14.6367C272.195 13.4023 272.707 12.4258 273.73 11.707C274.762 10.9883 276.195 10.6289 278.031 10.6289H280.574V9.1875C280.574 8.28125 280.293 7.57031 279.73 7.05469C279.176 6.53125 278.363 6.26953 277.293 6.26953C276.316 6.26953 275.508 6.51953 274.867 7.01953C274.227 7.51953 273.906 8.12109 273.906 8.82422L272.5 8.8125C272.5 7.80469 272.969 6.93359 273.906 6.19922C274.844 5.45703 275.996 5.08594 277.363 5.08594C278.777 5.08594 279.891 5.44141 280.703 6.15234C281.523 6.85547 281.945 7.83984 281.969 9.10547V15.1055C281.969 16.332 282.098 17.25 282.355 17.8594V18H280.855ZM276.449 16.9922C277.387 16.9922 278.223 16.7656 278.957 16.3125C279.699 15.8594 280.238 15.2539 280.574 14.4961V11.707H278.066C276.668 11.7227 275.574 11.9805 274.785 12.4805C273.996 12.9727 273.602 13.6523 273.602 14.5195C273.602 15.2305 273.863 15.8203 274.387 16.2891C274.918 16.7578 275.605 16.9922 276.449 16.9922ZM292.738 16.1016L297.777 5.32031H299.512V18H298.105V7.59375L293.23 18H292.234L287.266 7.35938V18H285.871V5.32031H287.711L292.738 16.1016ZM317.441 5.32031H318.848V18H317.441V7.58203L310.598 18H309.203V5.32031H310.598V15.75L317.441 5.32031ZM336.449 18C336.309 17.6016 336.219 17.0117 336.18 16.2305C335.688 16.8711 335.059 17.3672 334.293 17.7188C333.535 18.0625 332.73 18.2344 331.879 18.2344C330.66 18.2344 329.672 17.8945 328.914 17.2148C328.164 16.5352 327.789 15.6758 327.789 14.6367C327.789 13.4023 328.301 12.4258 329.324 11.707C330.355 10.9883 331.789 10.6289 333.625 10.6289H336.168V9.1875C336.168 8.28125 335.887 7.57031 335.324 7.05469C334.77 6.53125 333.957 6.26953 332.887 6.26953C331.91 6.26953 331.102 6.51953 330.461 7.01953C329.82 7.51953 329.5 8.12109 329.5 8.82422L328.094 8.8125C328.094 7.80469 328.562 6.93359 329.5 6.19922C330.438 5.45703 331.59 5.08594 332.957 5.08594C334.371 5.08594 335.484 5.44141 336.297 6.15234C337.117 6.85547 337.539 7.83984 337.562 9.10547V15.1055C337.562 16.332 337.691 17.25 337.949 17.8594V18H336.449ZM332.043 16.9922C332.98 16.9922 333.816 16.7656 334.551 16.3125C335.293 15.8594 335.832 15.2539 336.168 14.4961V11.707H333.66C332.262 11.7227 331.168 11.9805 330.379 12.4805C329.59 12.9727 329.195 13.6523 329.195 14.5195C329.195 15.2305 329.457 15.8203 329.98 16.2891C330.512 16.7578 331.199 16.9922 332.043 16.9922ZM344.758 12.1875H342.812V18H341.395V5.32031H342.812V10.9453H344.734L349.387 5.32031H351.156L345.953 11.4727L351.73 18H349.879L344.758 12.1875ZM362.863 6.51562H358.246V18H356.84V6.51562H352.398V5.32031H362.863V6.51562ZM369.145 18.2344C368.066 18.2344 367.09 17.9688 366.215 17.4375C365.348 16.9062 364.672 16.168 364.188 15.2227C363.703 14.2695 363.461 13.2031 363.461 12.0234V11.5195C363.461 10.3008 363.695 9.20312 364.164 8.22656C364.641 7.25 365.301 6.48438 366.145 5.92969C366.988 5.36719 367.902 5.08594 368.887 5.08594C370.426 5.08594 371.645 5.61328 372.543 6.66797C373.449 7.71484 373.902 9.14844 373.902 10.9688V11.7539H364.855V12.0234C364.855 13.4609 365.266 14.6602 366.086 15.6211C366.914 16.5742 367.953 17.0508 369.203 17.0508C369.953 17.0508 370.613 16.9141 371.184 16.6406C371.762 16.3672 372.285 15.9297 372.754 15.3281L373.633 15.9961C372.602 17.4883 371.105 18.2344 369.145 18.2344ZM368.887 6.28125C367.832 6.28125 366.941 6.66797 366.215 7.44141C365.496 8.21484 365.059 9.25391 364.902 10.5586H372.508V10.4062C372.469 9.1875 372.121 8.19531 371.465 7.42969C370.809 6.66406 369.949 6.28125 368.887 6.28125ZM386.828 11.7891C386.828 13.7656 386.391 15.3359 385.516 16.5C384.641 17.6562 383.469 18.2344 382 18.2344C380.266 18.2344 378.938 17.625 378.016 16.4062V22.875H376.621V5.32031H377.922L377.992 7.11328C378.906 5.76172 380.23 5.08594 381.965 5.08594C383.48 5.08594 384.668 5.66016 385.527 6.80859C386.395 7.95703 386.828 9.55078 386.828 11.5898V11.7891ZM385.422 11.543C385.422 9.92578 385.09 8.64844 384.426 7.71094C383.762 6.77344 382.836 6.30469 381.648 6.30469C380.789 6.30469 380.051 6.51172 379.434 6.92578C378.816 7.33984 378.344 7.94141 378.016 8.73047V14.8125C378.352 15.5391 378.832 16.0938 379.457 16.4766C380.082 16.8594 380.82 17.0508 381.672 17.0508C382.852 17.0508 383.77 16.582 384.426 15.6445C385.09 14.6992 385.422 13.332 385.422 11.543ZM397.949 18C397.809 17.6016 397.719 17.0117 397.68 16.2305C397.188 16.8711 396.559 17.3672 395.793 17.7188C395.035 18.0625 394.23 18.2344 393.379 18.2344C392.16 18.2344 391.172 17.8945 390.414 17.2148C389.664 16.5352 389.289 15.6758 389.289 14.6367C389.289 13.4023 389.801 12.4258 390.824 11.707C391.855 10.9883 393.289 10.6289 395.125 10.6289H397.668V9.1875C397.668 8.28125 397.387 7.57031 396.824 7.05469C396.27 6.53125 395.457 6.26953 394.387 6.26953C393.41 6.26953 392.602 6.51953 391.961 7.01953C391.32 7.51953 391 8.12109 391 8.82422L389.594 8.8125C389.594 7.80469 390.062 6.93359 391 6.19922C391.938 5.45703 393.09 5.08594 394.457 5.08594C395.871 5.08594 396.984 5.44141 397.797 6.15234C398.617 6.85547 399.039 7.83984 399.062 9.10547V15.1055C399.062 16.332 399.191 17.25 399.449 17.8594V18H397.949ZM393.543 16.9922C394.48 16.9922 395.316 16.7656 396.051 16.3125C396.793 15.8594 397.332 15.2539 397.668 14.4961V11.707H395.16C393.762 11.7227 392.668 11.9805 391.879 12.4805C391.09 12.9727 390.695 13.6523 390.695 14.5195C390.695 15.2305 390.957 15.8203 391.48 16.2891C392.012 16.7578 392.699 16.9922 393.543 16.9922ZM409.832 16.1016L414.871 5.32031H416.605V18H415.199V7.59375L410.324 18H409.328L404.359 7.35938V18H402.965V5.32031H404.805L409.832 16.1016Z" fill="white" fill-opacity="0.4"/>
</svg>
