<svg width="229" height="36" viewBox="0 0 229 36" fill="none" xmlns="http://www.w3.org/2000/svg">
<rect width="229" height="36" rx="4" fill="white" fill-opacity="0.8"/>
<path d="M25.6875 19.3906C25.5469 20.5938 25.1016 21.5234 24.3516 22.1797C23.6068 22.8307 22.6146 23.1562 21.375 23.1562C20.0312 23.1562 18.9531 22.6745 18.1406 21.7109C17.3333 20.7474 16.9297 19.4583 16.9297 17.8438V16.75C16.9297 15.6927 17.1172 14.763 17.4922 13.9609C17.8724 13.1589 18.4089 12.5443 19.1016 12.1172C19.7943 11.6849 20.5964 11.4688 21.5078 11.4688C22.7161 11.4688 23.6849 11.8073 24.4141 12.4844C25.1432 13.1562 25.5677 14.0885 25.6875 15.2812H24.1797C24.0495 14.375 23.7656 13.7188 23.3281 13.3125C22.8958 12.9062 22.2891 12.7031 21.5078 12.7031C20.5495 12.7031 19.7969 13.0573 19.25 13.7656C18.7083 14.474 18.4375 15.4818 18.4375 16.7891V17.8906C18.4375 19.125 18.6953 20.1068 19.2109 20.8359C19.7266 21.5651 20.4479 21.9297 21.375 21.9297C22.2083 21.9297 22.8464 21.7422 23.2891 21.3672C23.737 20.987 24.0339 20.3281 24.1797 19.3906H25.6875ZM34.4297 23H32.9844V15.7422H29.0938V23H27.6406V14.5469H34.4297V23ZM43.2109 14.5469V23H41.7578V19.7109H39.5781L37.5859 23H36.0234L38.1484 19.4922C37.6068 19.2943 37.1901 18.9896 36.8984 18.5781C36.612 18.1615 36.4688 17.6771 36.4688 17.125C36.4688 16.3542 36.7578 15.7344 37.3359 15.2656C37.9141 14.7917 38.6875 14.5521 39.6562 14.5469H43.2109ZM37.9219 17.1406C37.9219 17.5521 38.0625 17.8854 38.3438 18.1406C38.625 18.3906 38.9974 18.5182 39.4609 18.5234H41.7578V15.7188H39.6797C39.1432 15.7188 38.7161 15.8516 38.3984 16.1172C38.0807 16.3776 37.9219 16.7188 37.9219 17.1406ZM47.0234 14.5469V21.8203H50.1172V14.5469H51.5625V21.8203H54.6484V14.5469H56.1016V21.8203H57.2891L57.1484 25.5078H55.8516V23H45.5703V14.5469H47.0234ZM63.9844 23C63.901 22.8333 63.8333 22.5365 63.7812 22.1094C63.1094 22.8073 62.3073 23.1562 61.375 23.1562C60.5417 23.1562 59.8568 22.9219 59.3203 22.4531C58.7891 21.9792 58.5234 21.3802 58.5234 20.6562C58.5234 19.776 58.8568 19.0938 59.5234 18.6094C60.1953 18.1198 61.138 17.875 62.3516 17.875H63.7578V17.2109C63.7578 16.7057 63.6068 16.3047 63.3047 16.0078C63.0026 15.7057 62.5573 15.5547 61.9688 15.5547C61.4531 15.5547 61.0208 15.6849 60.6719 15.9453C60.3229 16.2057 60.1484 16.5208 60.1484 16.8906H58.6953C58.6953 16.4688 58.8438 16.0625 59.1406 15.6719C59.4427 15.276 59.849 14.9635 60.3594 14.7344C60.875 14.5052 61.4401 14.3906 62.0547 14.3906C63.0286 14.3906 63.7917 14.6354 64.3438 15.125C64.8958 15.6094 65.1823 16.2786 65.2031 17.1328V21.0234C65.2031 21.7995 65.3021 22.4167 65.5 22.875V23H63.9844ZM61.5859 21.8984C62.0391 21.8984 62.4688 21.7812 62.875 21.5469C63.2812 21.3125 63.5755 21.0078 63.7578 20.6328V18.8984H62.625C60.8542 18.8984 59.9688 19.4167 59.9688 20.4531C59.9688 20.9062 60.1198 21.2604 60.4219 21.5156C60.724 21.7708 61.112 21.8984 61.5859 21.8984ZM73.9297 14.5469V23H72.4766V19.7109H70.2969L68.3047 23H66.7422L68.8672 19.4922C68.3255 19.2943 67.9089 18.9896 67.6172 18.5781C67.3307 18.1615 67.1875 17.6771 67.1875 17.125C67.1875 16.3542 67.4766 15.7344 68.0547 15.2656C68.6328 14.7917 69.4062 14.5521 70.375 14.5469H73.9297ZM68.6406 17.1406C68.6406 17.5521 68.7812 17.8854 69.0625 18.1406C69.3438 18.3906 69.7161 18.5182 70.1797 18.5234H72.4766V15.7188H70.3984C69.862 15.7188 69.4349 15.8516 69.1172 16.1172C68.7995 16.3776 68.6406 16.7188 68.6406 17.1406ZM86.9609 19.3281H85.9453V23H84.5V19.3281H83.4844L81.1172 23H79.2891L82.3125 18.625L79.5781 14.5469H81.3281L83.5078 18.0469H84.5V14.5469H85.9453V18.0469H86.9297L89.125 14.5469H90.875L88.1328 18.6328L91.1562 23H89.3281L86.9609 19.3281ZM95.8203 23.1562C94.6745 23.1562 93.7422 22.7812 93.0234 22.0312C92.3047 21.276 91.9453 20.2682 91.9453 19.0078V18.7422C91.9453 17.9036 92.1042 17.1562 92.4219 16.5C92.7448 15.8385 93.1927 15.3229 93.7656 14.9531C94.3438 14.5781 94.9688 14.3906 95.6406 14.3906C96.7396 14.3906 97.5938 14.7526 98.2031 15.4766C98.8125 16.2005 99.1172 17.237 99.1172 18.5859V19.1875H93.3906C93.4115 20.0208 93.6536 20.6953 94.1172 21.2109C94.5859 21.7214 95.1797 21.9766 95.8984 21.9766C96.4089 21.9766 96.8411 21.8724 97.1953 21.6641C97.5495 21.4557 97.8594 21.1797 98.125 20.8359L99.0078 21.5234C98.2995 22.612 97.237 23.1562 95.8203 23.1562ZM95.6406 15.5781C95.0573 15.5781 94.5677 15.7917 94.1719 16.2188C93.776 16.6406 93.5312 17.2344 93.4375 18H97.6719V17.8906C97.6302 17.1562 97.4323 16.5885 97.0781 16.1875C96.724 15.7812 96.2448 15.5781 95.6406 15.5781ZM107.703 23H106.258V19.3906H102.375V23H100.922V14.5469H102.375V18.2109H106.258V14.5469H107.703V23ZM111.523 14.5469V21.8203H114.617V14.5469H116.062V21.8203H119.148V14.5469H120.602V21.8203H121.789L121.648 25.5078H120.352V23H110.07V14.5469H111.523ZM128.734 14.5469H130.18V23H128.734V16.8359L124.836 23H123.391V14.5469H124.836V20.7188L128.734 14.5469ZM139.406 23H137.961V19.3906H134.078V23H132.625V14.5469H134.078V18.2109H137.961V14.5469H139.406V23ZM146.953 23C146.87 22.8333 146.802 22.5365 146.75 22.1094C146.078 22.8073 145.276 23.1562 144.344 23.1562C143.51 23.1562 142.826 22.9219 142.289 22.4531C141.758 21.9792 141.492 21.3802 141.492 20.6562C141.492 19.776 141.826 19.0938 142.492 18.6094C143.164 18.1198 144.107 17.875 145.32 17.875H146.727V17.2109C146.727 16.7057 146.576 16.3047 146.273 16.0078C145.971 15.7057 145.526 15.5547 144.938 15.5547C144.422 15.5547 143.99 15.6849 143.641 15.9453C143.292 16.2057 143.117 16.5208 143.117 16.8906H141.664C141.664 16.4688 141.812 16.0625 142.109 15.6719C142.411 15.276 142.818 14.9635 143.328 14.7344C143.844 14.5052 144.409 14.3906 145.023 14.3906C145.997 14.3906 146.76 14.6354 147.312 15.125C147.865 15.6094 148.151 16.2786 148.172 17.1328V21.0234C148.172 21.7995 148.271 22.4167 148.469 22.875V23H146.953ZM144.555 21.8984C145.008 21.8984 145.438 21.7812 145.844 21.5469C146.25 21.3125 146.544 21.0078 146.727 20.6328V18.8984H145.594C143.823 18.8984 142.938 19.4167 142.938 20.4531C142.938 20.9062 143.089 21.2604 143.391 21.5156C143.693 21.7708 144.081 21.8984 144.555 21.8984ZM159.875 14.5469H161.32V23H159.875V16.8359L155.977 23H154.531V14.5469H155.977V20.7188L159.875 14.5469ZM174.523 23H173.078V15.7422H169.188V23H167.734V14.5469H174.523V23ZM183.984 18.8672C183.984 20.1536 183.69 21.1901 183.102 21.9766C182.513 22.763 181.716 23.1562 180.711 23.1562C179.685 23.1562 178.878 22.8307 178.289 22.1797V26.25H176.844V14.5469H178.164L178.234 15.4844C178.823 14.7552 179.641 14.3906 180.688 14.3906C181.703 14.3906 182.505 14.7734 183.094 15.5391C183.688 16.3047 183.984 17.3698 183.984 18.7344V18.8672ZM182.539 18.7031C182.539 17.75 182.336 16.9974 181.93 16.4453C181.523 15.8932 180.966 15.6172 180.258 15.6172C179.383 15.6172 178.727 16.0052 178.289 16.7812V20.8203C178.721 21.5911 179.383 21.9766 180.273 21.9766C180.966 21.9766 181.516 21.7031 181.922 21.1562C182.333 20.6042 182.539 19.7865 182.539 18.7031ZM191.297 14.5469H192.742V23H191.297V16.8359L187.398 23H185.953V14.5469H187.398V20.7188L191.297 14.5469ZM201.969 23H200.523V19.3906H196.641V23H195.188V14.5469H196.641V18.2109H200.523V14.5469H201.969V23ZM204.422 14.5469H205.875V21.8203H209.766V14.5469H211.211V21.8203H212.219L212.078 25.5078H210.781V23H204.422V14.5469Z" fill="black" fill-opacity="0.8"/>
</svg>
