<svg width="129" height="23" viewBox="0 0 129 23" fill="none" xmlns="http://www.w3.org/2000/svg">
<path d="M13.7344 2.16797H7.88672V18H6.44531V2.16797H0.609375V0.9375H13.7344V2.16797ZM14.2266 11.4727C14.2266 10.2539 14.4609 9.15625 14.9297 8.17969C15.4062 7.20312 16.0742 6.44531 16.9336 5.90625C17.8008 5.35938 18.7812 5.08594 19.875 5.08594C21.5625 5.08594 22.9297 5.67969 23.9766 6.86719C25.0234 8.04688 25.5469 9.61328 25.5469 11.5664V11.8594C25.5469 13.0859 25.3086 14.1914 24.832 15.1758C24.3633 16.1523 23.6992 16.9062 22.8398 17.4375C21.9805 17.9688 21 18.2344 19.8984 18.2344C18.2188 18.2344 16.8516 17.6445 15.7969 16.4648C14.75 15.2773 14.2266 13.707 14.2266 11.7539V11.4727ZM15.6328 11.8594C15.6328 13.375 16.0234 14.6211 16.8047 15.5977C17.5938 16.5664 18.625 17.0508 19.8984 17.0508C21.1641 17.0508 22.1875 16.5664 22.9688 15.5977C23.7578 14.6211 24.1523 13.3359 24.1523 11.7422V11.4727C24.1523 10.5039 23.9727 9.61719 23.6133 8.8125C23.2539 8.00781 22.75 7.38672 22.1016 6.94922C21.4531 6.50391 20.7109 6.28125 19.875 6.28125C18.625 6.28125 17.6055 6.77344 16.8164 7.75781C16.0273 8.73438 15.6328 10.0156 15.6328 11.6016V11.8594ZM35.4727 16.1016L40.5117 5.32031H42.2461V18H40.8398V7.59375L35.9648 18H34.9688L30 7.35938V18H28.6055V5.32031H30.4453L35.4727 16.1016ZM57.3633 8.15625L62.168 0.9375H63.8906L58.2422 9.35156L64.0664 18H62.332L57.3633 10.5469L52.3711 18H50.6602L56.4961 9.35156L50.8359 0.9375H52.5586L57.3633 8.15625ZM70.7695 6.28125C69.8008 6.28125 68.9922 6.5625 68.3438 7.125C67.6953 7.67969 67.3711 8.39844 67.3711 9.28125H66.0117C66.0117 8.51562 66.2227 7.8125 66.6445 7.17188C67.0742 6.53125 67.6602 6.02344 68.4023 5.64844C69.1445 5.27344 69.9336 5.08594 70.7695 5.08594C72.3242 5.08594 73.5938 5.63281 74.5781 6.72656C75.5625 7.8125 76.0938 9.23828 76.1719 11.0039L76.1836 11.9062C76.1836 13.125 75.957 14.2227 75.5039 15.1992C75.0508 16.168 74.418 16.918 73.6055 17.4492C72.793 17.9727 71.8516 18.2344 70.7812 18.2344C69.3906 18.2344 68.2461 17.8164 67.3477 16.9805C66.457 16.1367 66.0117 15.0469 66.0117 13.7109H67.3711C67.3711 14.7188 67.6914 15.5273 68.332 16.1367C68.9805 16.7461 69.7969 17.0508 70.7812 17.0508C71.9531 17.0508 72.8945 16.6133 73.6055 15.7383C74.3242 14.8633 74.7109 13.6797 74.7656 12.1875H69.0352V11.0039H74.7656C74.6953 9.57422 74.3047 8.42969 73.5938 7.57031C72.8906 6.71094 71.9492 6.28125 70.7695 6.28125ZM89.5781 11.7891C89.5781 13.7656 89.1406 15.3359 88.2656 16.5C87.3906 17.6562 86.2188 18.2344 84.75 18.2344C83.0156 18.2344 81.6875 17.625 80.7656 16.4062V22.875H79.3711V5.32031H80.6719L80.7422 7.11328C81.6562 5.76172 82.9805 5.08594 84.7148 5.08594C86.2305 5.08594 87.418 5.66016 88.2773 6.80859C89.1445 7.95703 89.5781 9.55078 89.5781 11.5898V11.7891ZM88.1719 11.543C88.1719 9.92578 87.8398 8.64844 87.1758 7.71094C86.5117 6.77344 85.5859 6.30469 84.3984 6.30469C83.5391 6.30469 82.8008 6.51172 82.1836 6.92578C81.5664 7.33984 81.0938 7.94141 80.7656 8.73047V14.8125C81.1016 15.5391 81.582 16.0938 82.207 16.4766C82.832 16.8594 83.5703 17.0508 84.4219 17.0508C85.6016 17.0508 86.5195 16.582 87.1758 15.6445C87.8398 14.6992 88.1719 13.332 88.1719 11.543ZM102.434 18H101.027V12.1875H94.1953V18H92.7891V5.32031H94.1953V11.0039H101.027V5.32031H102.434V18ZM109.641 12.1875H107.695V18H106.277V5.32031H107.695V10.9453H109.617L114.27 5.32031H116.039L110.836 11.4727L116.613 18H114.762L109.641 12.1875ZM123.141 17.0508C124.117 17.0508 124.934 16.7773 125.59 16.2305C126.254 15.6758 126.613 14.9609 126.668 14.0859H128.016C127.977 14.8594 127.734 15.5664 127.289 16.207C126.844 16.8398 126.25 17.3359 125.508 17.6953C124.773 18.0547 123.984 18.2344 123.141 18.2344C121.477 18.2344 120.156 17.6562 119.18 16.5C118.211 15.3438 117.727 13.7891 117.727 11.8359V11.4141C117.727 10.1641 117.945 9.05859 118.383 8.09766C118.82 7.13672 119.445 6.39453 120.258 5.87109C121.078 5.34766 122.035 5.08594 123.129 5.08594C124.52 5.08594 125.664 5.5 126.562 6.32812C127.469 7.15625 127.953 8.24609 128.016 9.59766H126.668C126.605 8.60547 126.246 7.80469 125.59 7.19531C124.941 6.58594 124.121 6.28125 123.129 6.28125C121.863 6.28125 120.879 6.73828 120.176 7.65234C119.48 8.56641 119.133 9.84766 119.133 11.4961V11.9062C119.133 13.5234 119.48 14.7852 120.176 15.6914C120.879 16.5977 121.867 17.0508 123.141 17.0508Z" fill="white"/>
</svg>
