<svg width="102" height="19" viewBox="0 0 102 19" fill="none" xmlns="http://www.w3.org/2000/svg">
<path d="M13.7344 2.16797H7.88672V18H6.44531V2.16797H0.609375V0.9375H13.7344V2.16797ZM14.2266 11.4727C14.2266 10.2539 14.4609 9.15625 14.9297 8.17969C15.4062 7.20312 16.0742 6.44531 16.9336 5.90625C17.8008 5.35938 18.7812 5.08594 19.875 5.08594C21.5625 5.08594 22.9297 5.67969 23.9766 6.86719C25.0234 8.04688 25.5469 9.61328 25.5469 11.5664V11.8594C25.5469 13.0859 25.3086 14.1914 24.832 15.1758C24.3633 16.1523 23.6992 16.9062 22.8398 17.4375C21.9805 17.9688 21 18.2344 19.8984 18.2344C18.2188 18.2344 16.8516 17.6445 15.7969 16.4648C14.75 15.2773 14.2266 13.707 14.2266 11.7539V11.4727ZM15.6328 11.8594C15.6328 13.375 16.0234 14.6211 16.8047 15.5977C17.5938 16.5664 18.625 17.0508 19.8984 17.0508C21.1641 17.0508 22.1875 16.5664 22.9688 15.5977C23.7578 14.6211 24.1523 13.3359 24.1523 11.7422V11.4727C24.1523 10.5039 23.9727 9.61719 23.6133 8.8125C23.2539 8.00781 22.75 7.38672 22.1016 6.94922C21.4531 6.50391 20.7109 6.28125 19.875 6.28125C18.625 6.28125 17.6055 6.77344 16.8164 7.75781C16.0273 8.73438 15.6328 10.0156 15.6328 11.6016V11.8594ZM35.4727 16.1016L40.5117 5.32031H42.2461V18H40.8398V7.59375L35.9648 18H34.9688L30 7.35938V18H28.6055V5.32031H30.4453L35.4727 16.1016ZM57.3633 8.15625L62.168 0.9375H63.8906L58.2422 9.35156L64.0664 18H62.332L57.3633 10.5469L52.3711 18H50.6602L56.4961 9.35156L50.8359 0.9375H52.5586L57.3633 8.15625ZM70.7695 6.28125C69.8008 6.28125 68.9922 6.5625 68.3438 7.125C67.6953 7.67969 67.3711 8.39844 67.3711 9.28125H66.0117C66.0117 8.51562 66.2227 7.8125 66.6445 7.17188C67.0742 6.53125 67.6602 6.02344 68.4023 5.64844C69.1445 5.27344 69.9336 5.08594 70.7695 5.08594C72.3242 5.08594 73.5938 5.63281 74.5781 6.72656C75.5625 7.8125 76.0938 9.23828 76.1719 11.0039L76.1836 11.9062C76.1836 13.125 75.957 14.2227 75.5039 15.1992C75.0508 16.168 74.418 16.918 73.6055 17.4492C72.793 17.9727 71.8516 18.2344 70.7812 18.2344C69.3906 18.2344 68.2461 17.8164 67.3477 16.9805C66.457 16.1367 66.0117 15.0469 66.0117 13.7109H67.3711C67.3711 14.7188 67.6914 15.5273 68.332 16.1367C68.9805 16.7461 69.7969 17.0508 70.7812 17.0508C71.9531 17.0508 72.8945 16.6133 73.6055 15.7383C74.3242 14.8633 74.7109 13.6797 74.7656 12.1875H69.0352V11.0039H74.7656C74.6953 9.57422 74.3047 8.42969 73.5938 7.57031C72.8906 6.71094 71.9492 6.28125 70.7695 6.28125ZM82.8281 12.1875H80.8828V18H79.4648V5.32031H80.8828V10.9453H82.8047L87.457 5.32031H89.2266L84.0234 11.4727L89.8008 18H87.9492L82.8281 12.1875ZM96.3281 17.0508C97.3047 17.0508 98.1211 16.7773 98.7773 16.2305C99.4414 15.6758 99.8008 14.9609 99.8555 14.0859H101.203C101.164 14.8594 100.922 15.5664 100.477 16.207C100.031 16.8398 99.4375 17.3359 98.6953 17.6953C97.9609 18.0547 97.1719 18.2344 96.3281 18.2344C94.6641 18.2344 93.3438 17.6562 92.3672 16.5C91.3984 15.3438 90.9141 13.7891 90.9141 11.8359V11.4141C90.9141 10.1641 91.1328 9.05859 91.5703 8.09766C92.0078 7.13672 92.6328 6.39453 93.4453 5.87109C94.2656 5.34766 95.2227 5.08594 96.3164 5.08594C97.707 5.08594 98.8516 5.5 99.75 6.32812C100.656 7.15625 101.141 8.24609 101.203 9.59766H99.8555C99.793 8.60547 99.4336 7.80469 98.7773 7.19531C98.1289 6.58594 97.3086 6.28125 96.3164 6.28125C95.0508 6.28125 94.0664 6.73828 93.3633 7.65234C92.668 8.56641 92.3203 9.84766 92.3203 11.4961V11.9062C92.3203 13.5234 92.668 14.7852 93.3633 15.6914C94.0664 16.5977 95.0547 17.0508 96.3281 17.0508Z" fill="white"/>
</svg>
